<svg width="904" height="106" viewBox="0 0 904 106" fill="none" xmlns="http://www.w3.org/2000/svg">
<rect width="904" height="106" fill="url(#paint0_linear_436_719)"/>
<path d="M128.678 31.0332V28.6699H130.543C131.24 28.6699 131.799 28.4941 132.223 28.1426C132.652 27.791 132.867 27.3288 132.867 26.7559C132.867 26.1895 132.659 25.7402 132.242 25.4082C131.832 25.0762 131.262 24.9102 130.533 24.9102C129.804 24.9102 129.215 25.0892 128.766 25.4473C128.316 25.8053 128.076 26.2871 128.043 26.8926H125.318C125.37 25.5579 125.868 24.5 126.812 23.7188C127.763 22.9375 129.029 22.5469 130.611 22.5469C132.115 22.5469 133.336 22.9017 134.273 23.6113C135.217 24.3145 135.689 25.2357 135.689 26.375C135.689 27.1628 135.445 27.8529 134.957 28.4453C134.475 29.0378 133.85 29.4154 133.082 29.5781V29.7539C134.026 29.8451 134.788 30.1934 135.367 30.7988C135.947 31.3978 136.236 32.166 136.236 33.1035C136.236 34.347 135.702 35.3691 134.635 36.1699C133.567 36.9642 132.219 37.3613 130.592 37.3613C128.977 37.3613 127.665 36.9609 126.656 36.1602C125.647 35.3594 125.11 34.2949 125.045 32.9668H127.867C127.913 33.5592 128.183 34.0312 128.678 34.3828C129.173 34.7279 129.824 34.9004 130.631 34.9004C131.406 34.9004 132.027 34.7148 132.496 34.3438C132.971 33.9661 133.209 33.4779 133.209 32.8789C133.209 32.306 132.978 31.8568 132.516 31.5312C132.053 31.1992 131.406 31.0332 130.572 31.0332H128.678ZM143.473 28.1035H141.637V30.584H143.316C143.87 30.584 144.286 30.4766 144.566 30.2617C144.853 30.0404 144.996 29.7311 144.996 29.334C144.996 28.9499 144.866 28.6504 144.605 28.4355C144.345 28.2142 143.967 28.1035 143.473 28.1035ZM143.473 32.293H141.637V35.125H143.619C144.199 35.125 144.641 35.0046 144.947 34.7637C145.253 34.5163 145.406 34.1615 145.406 33.6992C145.406 33.237 145.24 32.8887 144.908 32.6543C144.576 32.4134 144.098 32.293 143.473 32.293ZM138.844 37V26.2285H144.225C145.338 26.2285 146.207 26.4694 146.832 26.9512C147.464 27.4329 147.779 28.097 147.779 28.9434C147.779 29.5033 147.594 30.0013 147.223 30.4375C146.858 30.8737 146.399 31.1341 145.846 31.2188V31.3945C146.562 31.4596 147.141 31.7266 147.584 32.1953C148.033 32.6576 148.258 33.2207 148.258 33.8848C148.258 34.8288 147.903 35.584 147.193 36.1504C146.49 36.7168 145.533 37 144.322 37H138.844ZM159.381 35.7402C158.443 36.7363 157.148 37.2344 155.494 37.2344C153.84 37.2344 152.542 36.7363 151.598 35.7402C150.66 34.7441 150.191 33.3672 150.191 31.6094C150.191 29.8646 150.663 28.4941 151.607 27.498C152.558 26.4954 153.854 25.9941 155.494 25.9941C157.135 25.9941 158.427 26.4954 159.371 27.498C160.322 28.4941 160.797 29.8646 160.797 31.6094C160.797 33.3672 160.325 34.7441 159.381 35.7402ZM155.494 34.9102C156.249 34.9102 156.835 34.6237 157.252 34.0508C157.669 33.4714 157.877 32.6576 157.877 31.6094C157.877 30.5742 157.665 29.7669 157.242 29.1875C156.826 28.6081 156.243 28.3184 155.494 28.3184C154.739 28.3184 154.153 28.6081 153.736 29.1875C153.32 29.7669 153.111 30.5742 153.111 31.6094C153.111 32.6576 153.316 33.4714 153.727 34.0508C154.143 34.6237 154.732 34.9102 155.494 34.9102ZM170.416 37V32.5957H166.158V37H163.316V26.2285H166.158V30.3594H170.416V26.2285H173.258V37H170.416ZM179.098 37H176.305V26.2285H179.098V32.8496H179.273L183.57 26.2285H186.363V37H183.57V30.3008H183.395L179.098 37ZM199.439 34.9102C200.208 34.9102 200.803 34.6432 201.227 34.1094C201.656 33.569 201.871 32.804 201.871 31.8145C201.871 30.8704 201.656 30.1348 201.227 29.6074C200.803 29.0801 200.208 28.8164 199.439 28.8164C198.671 28.8164 198.072 29.0801 197.643 29.6074C197.219 30.1348 197.008 30.8704 197.008 31.8145C197.008 32.804 197.219 33.569 197.643 34.1094C198.066 34.6432 198.665 34.9102 199.439 34.9102ZM196.285 28.6699H196.461C197.164 27.2962 198.365 26.6094 200.064 26.6094C201.484 26.6094 202.626 27.0716 203.492 27.9961C204.358 28.9206 204.791 30.1673 204.791 31.7363C204.791 33.4355 204.316 34.7767 203.365 35.7598C202.415 36.7428 201.122 37.2344 199.488 37.2344C197.763 37.2344 196.432 36.694 195.494 35.6133C194.557 34.526 194.088 32.9245 194.088 30.8086C194.088 28.0482 194.553 26.0104 195.484 24.6953C196.422 23.3802 197.887 22.6868 199.879 22.6152L201.256 22.5664C201.751 22.5469 202.232 22.5013 202.701 22.4297C203.17 22.3581 203.512 22.2962 203.727 22.2441C203.948 22.1855 204.065 22.1497 204.078 22.1367V24.4316C204.02 24.4642 203.932 24.5033 203.814 24.5488C203.697 24.5944 203.411 24.6595 202.955 24.7441C202.499 24.8223 201.992 24.8711 201.432 24.8906L200.123 24.9297C199.465 24.9557 198.902 25.0534 198.434 25.2227C197.971 25.3854 197.594 25.6328 197.301 25.9648C197.014 26.2904 196.793 26.668 196.637 27.0977C196.48 27.5273 196.363 28.0514 196.285 28.6699ZM217.691 37V26.2285H220.533V37H217.691ZM211.891 31.541H210.201V34.7637H211.891C212.431 34.7637 212.861 34.6172 213.18 34.3242C213.505 34.0247 213.668 33.6341 213.668 33.1523C213.668 32.6706 213.505 32.2832 213.18 31.9902C212.854 31.6908 212.424 31.541 211.891 31.541ZM207.359 37V26.2285H210.201V29.334H212.34C213.609 29.334 214.618 29.6823 215.367 30.3789C216.122 31.069 216.5 32 216.5 33.1719C216.5 34.3438 216.122 35.2747 215.367 35.9648C214.618 36.6549 213.609 37 212.34 37H207.359ZM233.121 30.0273H230.465C230.367 29.5 230.133 29.0866 229.762 28.7871C229.397 28.4811 228.919 28.3281 228.326 28.3281C227.558 28.3281 226.965 28.6081 226.549 29.168C226.139 29.7279 225.934 30.5352 225.934 31.5898C225.934 32.6576 226.139 33.4779 226.549 34.0508C226.965 34.6172 227.558 34.9004 228.326 34.9004C228.912 34.9004 229.387 34.7604 229.752 34.4805C230.123 34.2005 230.361 33.7969 230.465 33.2695H233.121C233.004 34.487 232.522 35.4538 231.676 36.1699C230.829 36.8796 229.713 37.2344 228.326 37.2344C226.646 37.2344 225.348 36.7461 224.43 35.7695C223.518 34.7865 223.062 33.3932 223.062 31.5898C223.062 29.7995 223.518 28.4193 224.43 27.4492C225.341 26.4792 226.64 25.9941 228.326 25.9941C229.732 25.9941 230.852 26.3555 231.686 27.0781C232.525 27.8008 233.004 28.7839 233.121 30.0273ZM243.6 26.2285V28.4648H240.377V37H237.535V28.4648H234.312V26.2285H243.6ZM252.037 26.0527C253.404 26.0527 254.479 26.5443 255.26 27.5273C256.041 28.5104 256.432 29.8711 256.432 31.6094C256.432 33.3411 256.044 34.7018 255.27 35.6914C254.495 36.6745 253.434 37.166 252.086 37.166C251.318 37.166 250.65 37.0065 250.084 36.6875C249.518 36.3685 249.101 35.9225 248.834 35.3496H248.658V40.5742H245.816V26.2285H248.57V27.9961H248.746C249.039 27.3906 249.475 26.9154 250.055 26.5703C250.634 26.2253 251.295 26.0527 252.037 26.0527ZM251.07 34.793C251.839 34.793 252.438 34.513 252.867 33.9531C253.297 33.3867 253.512 32.6055 253.512 31.6094C253.512 30.6198 253.294 29.8451 252.857 29.2852C252.428 28.7188 251.835 28.4355 251.08 28.4355C250.325 28.4355 249.726 28.722 249.283 29.2949C248.847 29.8613 248.629 30.6361 248.629 31.6191C248.629 32.6022 248.847 33.377 249.283 33.9434C249.719 34.5098 250.315 34.793 251.07 34.793ZM263.619 28.1719C262.962 28.1719 262.418 28.3835 261.988 28.8066C261.565 29.2298 261.327 29.7897 261.275 30.4863H265.865C265.833 29.7702 265.615 29.207 265.211 28.7969C264.814 28.3802 264.283 28.1719 263.619 28.1719ZM265.924 33.9336H268.57C268.355 34.9557 267.809 35.763 266.93 36.3555C266.057 36.9414 264.964 37.2344 263.648 37.2344C262.008 37.2344 260.729 36.7461 259.811 35.7695C258.893 34.7865 258.434 33.4193 258.434 31.668C258.434 29.9167 258.896 28.5332 259.82 27.5176C260.745 26.502 262.008 25.9941 263.609 25.9941C265.198 25.9941 266.435 26.4727 267.32 27.4297C268.212 28.3867 268.658 29.7214 268.658 31.4336V32.3027H261.266V32.4492C261.285 33.25 261.513 33.8848 261.949 34.3535C262.392 34.8158 262.984 35.0469 263.727 35.0469C264.286 35.0469 264.755 34.9525 265.133 34.7637C265.51 34.5684 265.774 34.2917 265.924 33.9336ZM275.846 28.1719C275.188 28.1719 274.645 28.3835 274.215 28.8066C273.792 29.2298 273.554 29.7897 273.502 30.4863H278.092C278.059 29.7702 277.841 29.207 277.438 28.7969C277.04 28.3802 276.51 28.1719 275.846 28.1719ZM278.15 33.9336H280.797C280.582 34.9557 280.035 35.763 279.156 36.3555C278.284 36.9414 277.19 37.2344 275.875 37.2344C274.234 37.2344 272.955 36.7461 272.037 35.7695C271.119 34.7865 270.66 33.4193 270.66 31.668C270.66 29.9167 271.122 28.5332 272.047 27.5176C272.971 26.502 274.234 25.9941 275.836 25.9941C277.424 25.9941 278.661 26.4727 279.547 27.4297C280.439 28.3867 280.885 29.7214 280.885 31.4336V32.3027H273.492V32.4492C273.512 33.25 273.74 33.8848 274.176 34.3535C274.618 34.8158 275.211 35.0469 275.953 35.0469C276.513 35.0469 276.982 34.9525 277.359 34.7637C277.737 34.5684 278.001 34.2917 278.15 33.9336Z" fill="black"/>
<rect x="124" y="50" width="21" height="21" rx="10.5" fill="#3FB9F5"/>
<path d="M137.814 65.4999C137.335 65.4999 136.661 65.3266 135.653 64.7633C134.427 64.0758 133.478 63.4411 132.259 62.2249C131.083 61.05 130.511 60.2893 129.71 58.8323C128.805 57.1872 128.959 56.3249 129.132 55.9563C129.337 55.5158 129.64 55.2523 130.032 54.9908C130.254 54.8451 130.49 54.7202 130.735 54.6176C130.76 54.6071 130.783 54.597 130.803 54.5879C130.924 54.5332 131.109 54.4504 131.342 54.5388C131.498 54.5973 131.637 54.7168 131.854 54.9317C132.3 55.3717 132.91 56.3516 133.135 56.8329C133.286 57.1572 133.386 57.3713 133.386 57.6115C133.386 57.8926 133.245 58.1094 133.073 58.3434C133.041 58.3874 133.009 58.4294 132.978 58.4701C132.791 58.7157 132.75 58.7866 132.777 58.9133C132.832 59.168 133.241 59.9259 133.912 60.5955C134.583 61.2651 135.319 61.6476 135.575 61.7022C135.707 61.7304 135.779 61.6877 136.033 61.4942C136.069 61.4664 136.107 61.4377 136.146 61.409C136.407 61.2143 136.614 61.0765 136.889 61.0765H136.89C137.129 61.0765 137.334 61.1801 137.673 61.351C138.115 61.574 139.124 62.1758 139.567 62.6224C139.782 62.8395 139.903 62.978 139.961 63.1334C140.05 63.3674 139.966 63.5508 139.912 63.6736C139.903 63.694 139.893 63.7163 139.882 63.7411C139.779 63.986 139.653 64.221 139.507 64.4429C139.246 64.8333 138.981 65.1355 138.54 65.341C138.313 65.4483 138.065 65.5026 137.814 65.4999Z" fill="white"/>
<path d="M166.259 61.6694V65.0093H165.417V61.6694H162.165V60.8345H165.417V57.5532H166.259V60.8345H169.503V61.6694H166.259ZM172.44 65.5L177.326 55.9126V55.832H171.466V54.9312H178.351V55.8687L173.51 65.5H172.44ZM187.741 65.7124C186.857 65.7124 186.11 65.4683 185.5 64.98C184.894 64.4917 184.516 63.8374 184.364 63.0171H185.39C185.521 63.564 185.797 64.001 186.217 64.3281C186.642 64.6553 187.155 64.8188 187.755 64.8188C188.683 64.8188 189.406 64.4136 189.923 63.603C190.441 62.7876 190.719 61.6377 190.758 60.1533C190.763 60.124 190.756 60.0801 190.736 60.0215C190.722 59.9629 190.714 59.9263 190.714 59.9116H190.692H190.67C190.441 60.4976 190.053 60.9688 189.506 61.3252C188.964 61.6768 188.349 61.8525 187.66 61.8525C186.649 61.8525 185.814 61.5229 185.155 60.8638C184.501 60.1997 184.174 59.3623 184.174 58.3516C184.174 57.2969 184.516 56.4277 185.199 55.7441C185.888 55.0557 186.759 54.7114 187.814 54.7114C188.527 54.7114 189.157 54.8872 189.704 55.2388C190.255 55.5854 190.697 56.0859 191.029 56.7402C191.498 57.5605 191.732 58.6445 191.732 59.9922C191.732 61.7891 191.381 63.1929 190.678 64.2036C189.979 65.2095 189 65.7124 187.741 65.7124ZM187.821 60.981C188.578 60.981 189.213 60.7319 189.726 60.2339C190.238 59.731 190.495 59.1133 190.495 58.3809C190.495 57.5947 190.238 56.9355 189.726 56.4033C189.218 55.8662 188.585 55.5977 187.829 55.5977C187.077 55.5977 186.447 55.8589 185.939 56.3813C185.436 56.9038 185.185 57.5508 185.185 58.3223C185.185 59.0938 185.431 59.731 185.924 60.2339C186.417 60.7319 187.05 60.981 187.821 60.981ZM197.174 65.7124C196.291 65.7124 195.543 65.4683 194.933 64.98C194.328 64.4917 193.949 63.8374 193.798 63.0171H194.823C194.955 63.564 195.231 64.001 195.651 64.3281C196.076 64.6553 196.588 64.8188 197.189 64.8188C198.117 64.8188 198.839 64.4136 199.357 63.603C199.875 62.7876 200.153 61.6377 200.192 60.1533C200.197 60.124 200.189 60.0801 200.17 60.0215C200.155 59.9629 200.148 59.9263 200.148 59.9116H200.126H200.104C199.875 60.4976 199.486 60.9688 198.939 61.3252C198.397 61.6768 197.782 61.8525 197.094 61.8525C196.083 61.8525 195.248 61.5229 194.589 60.8638C193.935 60.1997 193.607 59.3623 193.607 58.3516C193.607 57.2969 193.949 56.4277 194.633 55.7441C195.321 55.0557 196.193 54.7114 197.248 54.7114C197.96 54.7114 198.59 54.8872 199.137 55.2388C199.689 55.5854 200.131 56.0859 200.463 56.7402C200.932 57.5605 201.166 58.6445 201.166 59.9922C201.166 61.7891 200.814 63.1929 200.111 64.2036C199.413 65.2095 198.434 65.7124 197.174 65.7124ZM197.255 60.981C198.012 60.981 198.646 60.7319 199.159 60.2339C199.672 59.731 199.928 59.1133 199.928 58.3809C199.928 57.5947 199.672 56.9355 199.159 56.4033C198.651 55.8662 198.019 55.5977 197.262 55.5977C196.51 55.5977 195.88 55.8589 195.373 56.3813C194.87 56.9038 194.618 57.5508 194.618 58.3223C194.618 59.0938 194.865 59.731 195.358 60.2339C195.851 60.7319 196.483 60.981 197.255 60.981ZM206.608 65.7124C205.724 65.7124 204.977 65.4683 204.367 64.98C203.761 64.4917 203.383 63.8374 203.231 63.0171H204.257C204.389 63.564 204.665 64.001 205.084 64.3281C205.509 64.6553 206.022 64.8188 206.623 64.8188C207.55 64.8188 208.273 64.4136 208.791 63.603C209.308 62.7876 209.586 61.6377 209.625 60.1533C209.63 60.124 209.623 60.0801 209.604 60.0215C209.589 59.9629 209.582 59.9263 209.582 59.9116H209.56H209.538C209.308 60.4976 208.92 60.9688 208.373 61.3252C207.831 61.6768 207.216 61.8525 206.527 61.8525C205.517 61.8525 204.682 61.5229 204.022 60.8638C203.368 60.1997 203.041 59.3623 203.041 58.3516C203.041 57.2969 203.383 56.4277 204.066 55.7441C204.755 55.0557 205.626 54.7114 206.681 54.7114C207.394 54.7114 208.024 54.8872 208.571 55.2388C209.123 55.5854 209.564 56.0859 209.896 56.7402C210.365 57.5605 210.6 58.6445 210.6 59.9922C210.6 61.7891 210.248 63.1929 209.545 64.2036C208.847 65.2095 207.868 65.7124 206.608 65.7124ZM206.688 60.981C207.445 60.981 208.08 60.7319 208.593 60.2339C209.105 59.731 209.362 59.1133 209.362 58.3809C209.362 57.5947 209.105 56.9355 208.593 56.4033C208.085 55.8662 207.453 55.5977 206.696 55.5977C205.944 55.5977 205.314 55.8589 204.806 56.3813C204.303 56.9038 204.052 57.5508 204.052 58.3223C204.052 59.0938 204.298 59.731 204.792 60.2339C205.285 60.7319 205.917 60.981 206.688 60.981ZM219.293 65.5V56.0518H219.198C219.096 56.1055 218.632 56.4229 217.807 57.0039C216.981 57.5801 216.527 57.895 216.444 57.9487V56.8867C216.464 56.8721 216.901 56.5693 217.755 55.9785C218.61 55.3828 219.123 55.0337 219.293 54.9312H220.29V65.5H219.293ZM223.329 57.8462C223.334 57.2456 223.478 56.7061 223.761 56.2275C224.049 55.749 224.445 55.3779 224.948 55.1143C225.451 54.8457 226.017 54.7114 226.647 54.7114C227.575 54.7114 228.354 54.9946 228.983 55.561C229.613 56.1226 229.928 56.8184 229.928 57.6484C229.928 58.1953 229.772 58.7349 229.459 59.2671C229.147 59.7993 228.556 60.5293 227.687 61.457L224.831 64.5039V64.5918H230.192V65.5H223.388V64.7969L227.079 60.8052C227.816 60.0142 228.307 59.4111 228.551 58.9961C228.8 58.5762 228.925 58.1392 228.925 57.6851C228.925 57.0942 228.703 56.5986 228.258 56.1982C227.819 55.793 227.274 55.5903 226.625 55.5903C225.946 55.5903 225.392 55.8003 224.962 56.2202C224.533 56.6353 224.313 57.1772 224.303 57.8462V57.8535H223.329V57.8462ZM234.411 60.4756V59.6113H235.648C236.332 59.6113 236.886 59.4233 237.311 59.0474C237.741 58.6665 237.956 58.1733 237.956 57.5679C237.956 56.9917 237.743 56.5181 237.318 56.147C236.894 55.7759 236.354 55.5903 235.7 55.5903C235.045 55.5903 234.503 55.771 234.074 56.1323C233.649 56.4888 233.412 56.9673 233.363 57.5679H232.389C232.448 56.7036 232.78 56.0127 233.385 55.4951C233.996 54.9727 234.779 54.7114 235.736 54.7114C236.635 54.7114 237.399 54.9775 238.029 55.5098C238.659 56.042 238.974 56.689 238.974 57.4507C238.974 58.0903 238.8 58.6299 238.454 59.0693C238.107 59.5039 237.626 59.7896 237.011 59.9263V60.0215C237.768 60.1045 238.363 60.3828 238.798 60.8564C239.237 61.3252 239.457 61.9209 239.457 62.6436C239.457 63.5127 239.103 64.2427 238.395 64.8335C237.687 65.4243 236.815 65.7197 235.78 65.7197C234.76 65.7197 233.91 65.4463 233.231 64.8994C232.558 64.3525 232.204 63.6519 232.169 62.7974H233.136C233.18 63.3931 233.449 63.8838 233.942 64.2695C234.44 64.6504 235.05 64.8408 235.773 64.8408C236.54 64.8408 237.172 64.6309 237.67 64.2109C238.173 63.791 238.424 63.2612 238.424 62.6216C238.424 61.9575 238.18 61.4351 237.692 61.0542C237.204 60.6685 236.537 60.4756 235.692 60.4756H234.411ZM250.634 65.5V63.1123H245.324V62.1968C246.413 60.356 248.029 57.9292 250.172 54.9165H251.608V62.2114H253.19V63.1123H251.608V65.5H250.634ZM246.371 62.1528V62.2188H250.634V55.876H250.568C249.63 57.1553 248.854 58.2588 248.239 59.1865C247.624 60.1143 247.001 61.103 246.371 62.1528ZM258.625 65.7197C257.663 65.7197 256.852 65.4438 256.193 64.8921C255.539 64.3354 255.185 63.6274 255.131 62.7681H256.112C256.166 63.3589 256.432 63.8521 256.911 64.2476C257.389 64.6382 257.963 64.8335 258.632 64.8335C259.403 64.8335 260.038 64.5845 260.536 64.0864C261.034 63.5884 261.283 62.9512 261.283 62.1748C261.283 61.3984 261.034 60.7612 260.536 60.2632C260.043 59.7651 259.416 59.5161 258.654 59.5161C258.136 59.5161 257.66 59.6357 257.226 59.875C256.796 60.1094 256.469 60.4292 256.244 60.8345H255.292L255.863 54.9312H261.627V55.832H256.654L256.303 59.6846H256.398C256.652 59.3525 256.989 59.0962 257.409 58.9155C257.829 58.7349 258.297 58.6445 258.815 58.6445C259.831 58.6445 260.663 58.9741 261.312 59.6333C261.962 60.2876 262.287 61.125 262.287 62.1455C262.287 63.1904 261.945 64.0474 261.261 64.7163C260.578 65.3853 259.699 65.7197 258.625 65.7197ZM264.14 57.8462C264.145 57.2456 264.289 56.7061 264.572 56.2275C264.86 55.749 265.255 55.3779 265.758 55.1143C266.261 54.8457 266.828 54.7114 267.458 54.7114C268.385 54.7114 269.164 54.9946 269.794 55.561C270.424 56.1226 270.739 56.8184 270.739 57.6484C270.739 58.1953 270.583 58.7349 270.27 59.2671C269.958 59.7993 269.367 60.5293 268.498 61.457L265.641 64.5039V64.5918H271.002V65.5H264.198V64.7969L267.89 60.8052C268.627 60.0142 269.118 59.4111 269.362 58.9961C269.611 58.5762 269.735 58.1392 269.735 57.6851C269.735 57.0942 269.513 56.5986 269.069 56.1982C268.629 55.793 268.085 55.5903 267.436 55.5903C266.757 55.5903 266.203 55.8003 265.773 56.2202C265.343 56.6353 265.124 57.1772 265.114 57.8462V57.8535H264.14V57.8462ZM275.221 60.4756V59.6113H276.459C277.143 59.6113 277.697 59.4233 278.122 59.0474C278.551 58.6665 278.766 58.1733 278.766 57.5679C278.766 56.9917 278.554 56.5181 278.129 56.147C277.704 55.7759 277.165 55.5903 276.51 55.5903C275.856 55.5903 275.314 55.771 274.884 56.1323C274.459 56.4888 274.223 56.9673 274.174 57.5679H273.2C273.258 56.7036 273.59 56.0127 274.196 55.4951C274.806 54.9727 275.59 54.7114 276.547 54.7114C277.445 54.7114 278.209 54.9775 278.839 55.5098C279.469 56.042 279.784 56.689 279.784 57.4507C279.784 58.0903 279.611 58.6299 279.264 59.0693C278.917 59.5039 278.437 59.7896 277.821 59.9263V60.0215C278.578 60.1045 279.174 60.3828 279.608 60.8564C280.048 61.3252 280.268 61.9209 280.268 62.6436C280.268 63.5127 279.914 64.2427 279.206 64.8335C278.498 65.4243 277.626 65.7197 276.591 65.7197C275.57 65.7197 274.721 65.4463 274.042 64.8994C273.368 64.3525 273.014 63.6519 272.98 62.7974H273.947C273.991 63.3931 274.259 63.8838 274.752 64.2695C275.25 64.6504 275.861 64.8408 276.583 64.8408C277.35 64.8408 277.982 64.6309 278.48 64.2109C278.983 63.791 279.235 63.2612 279.235 62.6216C279.235 61.9575 278.991 61.4351 278.502 61.0542C278.014 60.6685 277.348 60.4756 276.503 60.4756H275.221Z" fill="black"/>
<rect x="327" y="18" width="3" height="70" rx="1.5" fill="#3FB9F5"/>
<path d="M388.906 37H385.967V25.4375H379.766V37H376.807V22.9082H388.906V37ZM395.039 37H392.246V26.2285H395.039V32.8496H395.215L399.512 26.2285H402.305V37H399.512V30.3008H399.336L395.039 37ZM405.352 37V26.2285H408.193V34.7637H411.279V26.2285H414.121V34.7637H417.207V26.2285H420.049V37H405.352ZM425.879 37H423.086V26.2285H425.879V32.8496H426.055L430.352 26.2285H433.145V37H430.352V30.3008H430.176L425.879 37ZM448.447 37V32.5957H444.189V37H441.348V26.2285H444.189V30.3594H448.447V26.2285H451.289V37H448.447ZM458.223 35.0273C458.88 35.0273 459.43 34.8418 459.873 34.4707C460.316 34.0996 460.537 33.6406 460.537 33.0938V32.3027L458.359 32.4395C457.148 32.5241 456.543 32.957 456.543 33.7383C456.543 34.1354 456.696 34.4512 457.002 34.6855C457.314 34.9134 457.721 35.0273 458.223 35.0273ZM457.285 37.166C456.243 37.166 455.394 36.8698 454.736 36.2773C454.085 35.6849 453.76 34.9004 453.76 33.9238C453.76 32.9538 454.118 32.1921 454.834 31.6387C455.557 31.0788 456.589 30.7598 457.93 30.6816L460.537 30.5254V29.6465C460.537 29.1973 460.381 28.8522 460.068 28.6113C459.756 28.3639 459.307 28.2402 458.721 28.2402C457.666 28.2402 457.018 28.5723 456.777 29.2363H454.16C454.251 28.2402 454.72 27.4525 455.566 26.873C456.419 26.2871 457.523 25.9941 458.877 25.9941C460.296 25.9941 461.393 26.3132 462.168 26.9512C462.949 27.5892 463.34 28.4876 463.34 29.6465V37H460.586V35.5938H460.41C460.13 36.0885 459.714 36.4759 459.16 36.7559C458.607 37.0293 457.982 37.166 457.285 37.166ZM478.486 37V28.4648H474.326V37H471.484V26.2285H481.328V37H478.486ZM493.037 35.7402C492.1 36.7363 490.804 37.2344 489.15 37.2344C487.497 37.2344 486.198 36.7363 485.254 35.7402C484.316 34.7441 483.848 33.3672 483.848 31.6094C483.848 29.8646 484.32 28.4941 485.264 27.498C486.214 26.4954 487.51 25.9941 489.15 25.9941C490.791 25.9941 492.083 26.4954 493.027 27.498C493.978 28.4941 494.453 29.8646 494.453 31.6094C494.453 33.3672 493.981 34.7441 493.037 35.7402ZM489.15 34.9102C489.906 34.9102 490.492 34.6237 490.908 34.0508C491.325 33.4714 491.533 32.6576 491.533 31.6094C491.533 30.5742 491.322 29.7669 490.898 29.1875C490.482 28.6081 489.899 28.3184 489.15 28.3184C488.395 28.3184 487.809 28.6081 487.393 29.1875C486.976 29.7669 486.768 30.5742 486.768 31.6094C486.768 32.6576 486.973 33.4714 487.383 34.0508C487.799 34.6237 488.389 34.9102 489.15 34.9102ZM506.299 37H503.457V32.6934H503.281C502.598 33.2988 501.748 33.6016 500.732 33.6016C499.489 33.6016 498.496 33.2305 497.754 32.4883C497.018 31.7461 496.65 30.7663 496.65 29.5488V26.2285H499.492V29.2363C499.492 29.8288 499.665 30.2975 500.01 30.6426C500.355 30.9811 500.837 31.1504 501.455 31.1504C502.269 31.1504 502.936 30.9095 503.457 30.4277V26.2285H506.299V37ZM517.783 26.2285V28.4648H514.561V37H511.719V28.4648H508.496V26.2285H517.783ZM521.279 40.916C520.674 40.916 520.312 40.9062 520.195 40.8867V38.6016C520.26 38.6146 520.475 38.6211 520.84 38.6211C521.38 38.6211 521.803 38.5267 522.109 38.3379C522.415 38.1556 522.627 37.8626 522.744 37.459L522.842 37.0684L519.062 26.2285H522.197L524.463 34.3926H524.639L526.904 26.2285H529.912L526.201 37.166C525.745 38.5462 525.146 39.5163 524.404 40.0762C523.669 40.6361 522.627 40.916 521.279 40.916Z" fill="black"/>
<path d="M400.2 50H377.8C376.26 50 375.014 51.1812 375.014 52.625L375 68.375C375 69.8188 376.26 71 377.8 71H400.2C401.74 71 403 69.8188 403 68.375V52.625C403 51.1812 401.74 50 400.2 50ZM400.2 55.25L389 61.8125L377.8 55.25V52.625L389 59.1875L400.2 52.625V55.25Z" fill="#3FB9F5"/>
<path d="M417.618 64.5332C418.268 64.5332 418.805 64.3452 419.229 63.9692C419.659 63.5933 419.874 63.1221 419.874 62.5557V61.8306L417.75 61.9697C417.154 62.0088 416.717 62.1333 416.439 62.3433C416.161 62.5532 416.021 62.8584 416.021 63.2588C416.021 63.6543 416.17 63.9668 416.468 64.1963C416.766 64.4209 417.149 64.5332 417.618 64.5332ZM417.384 65.6392C416.607 65.6392 415.968 65.4268 415.465 65.002C414.967 64.5723 414.718 64.001 414.718 63.2881C414.718 62.585 414.967 62.0332 415.465 61.6328C415.963 61.2324 416.673 61.0054 417.596 60.9517L419.874 60.8125V60.0947C419.874 59.6064 419.723 59.2329 419.42 58.9741C419.117 58.7153 418.673 58.5859 418.087 58.5859C417.613 58.5859 417.22 58.6714 416.908 58.8423C416.595 59.0132 416.395 59.2549 416.307 59.5674H415.033C415.116 58.9375 415.44 58.4297 416.007 58.0439C416.578 57.6582 417.286 57.4653 418.131 57.4653C419.088 57.4653 419.828 57.6973 420.35 58.1611C420.873 58.625 421.134 59.2695 421.134 60.0947V65.5H419.933V64.3354H419.815C419.562 64.7554 419.225 65.0776 418.805 65.3022C418.385 65.5269 417.911 65.6392 417.384 65.6392ZM429.85 57.6045V65.5H428.648V64.2622H428.531C428.331 64.7065 428.023 65.0483 427.608 65.2876C427.193 65.522 426.686 65.6392 426.085 65.6392C425.206 65.6392 424.537 65.3877 424.078 64.8848C423.619 64.3818 423.39 63.6592 423.39 62.7168V57.6045H424.649V62.4092C424.649 63.127 424.791 63.6543 425.074 63.9912C425.357 64.3232 425.812 64.4893 426.437 64.4893C427.125 64.4893 427.655 64.2964 428.026 63.9106C428.402 63.52 428.59 62.9756 428.59 62.2773V57.6045H429.85ZM432.75 55.561H434.01V57.6045H435.768V58.6592H434.01V63.127C434.01 63.5908 434.103 63.9277 434.288 64.1377C434.474 64.3477 434.771 64.4526 435.182 64.4526C435.362 64.4526 435.558 64.4429 435.768 64.4233V65.4854C435.489 65.5342 435.243 65.5586 435.028 65.5586C434.212 65.5586 433.629 65.395 433.277 65.0679C432.926 64.7407 432.75 64.2012 432.75 63.4492V58.6592H431.476V57.6045H432.75V55.561ZM443.458 64.5479C442.809 65.2754 441.922 65.6392 440.799 65.6392C439.676 65.6392 438.788 65.2754 438.133 64.5479C437.484 63.8154 437.159 62.8169 437.159 61.5522C437.159 60.2827 437.484 59.2842 438.133 58.5566C438.783 57.8291 439.671 57.4653 440.799 57.4653C441.927 57.4653 442.816 57.8291 443.465 58.5566C444.115 59.2842 444.439 60.2827 444.439 61.5522C444.439 62.8169 444.112 63.8154 443.458 64.5479ZM439.071 63.7349C439.476 64.2476 440.052 64.5039 440.799 64.5039C441.546 64.5039 442.123 64.2476 442.528 63.7349C442.933 63.2173 443.136 62.4897 443.136 61.5522C443.136 60.6147 442.933 59.8896 442.528 59.377C442.123 58.8594 441.546 58.6006 440.799 58.6006C440.052 58.6006 439.476 58.8594 439.071 59.377C438.666 59.8896 438.463 60.6147 438.463 61.5522C438.463 62.4897 438.666 63.2173 439.071 63.7349ZM456.056 57.6045L453.844 65.5H452.562L450.797 59.3916H450.68L448.922 65.5H447.647L445.436 57.6045H446.71L448.263 63.918H448.38L450.145 57.6045H451.354L453.119 63.918H453.236L454.789 57.6045H456.056ZM459.952 64.5332C460.602 64.5332 461.139 64.3452 461.563 63.9692C461.993 63.5933 462.208 63.1221 462.208 62.5557V61.8306L460.084 61.9697C459.488 62.0088 459.051 62.1333 458.773 62.3433C458.495 62.5532 458.355 62.8584 458.355 63.2588C458.355 63.6543 458.504 63.9668 458.802 64.1963C459.1 64.4209 459.483 64.5332 459.952 64.5332ZM459.718 65.6392C458.941 65.6392 458.302 65.4268 457.799 65.002C457.301 64.5723 457.052 64.001 457.052 63.2881C457.052 62.585 457.301 62.0332 457.799 61.6328C458.297 61.2324 459.007 61.0054 459.93 60.9517L462.208 60.8125V60.0947C462.208 59.6064 462.057 59.2329 461.754 58.9741C461.451 58.7153 461.007 58.5859 460.421 58.5859C459.947 58.5859 459.554 58.6714 459.242 58.8423C458.929 59.0132 458.729 59.2549 458.641 59.5674H457.367C457.45 58.9375 457.774 58.4297 458.341 58.0439C458.912 57.6582 459.62 57.4653 460.465 57.4653C461.422 57.4653 462.162 57.6973 462.684 58.1611C463.207 58.625 463.468 59.2695 463.468 60.0947V65.5H462.267V64.3354H462.149C461.896 64.7554 461.559 65.0776 461.139 65.3022C460.719 65.5269 460.245 65.6392 459.718 65.6392ZM465.614 59.7651C465.614 59.1108 465.895 58.564 466.456 58.1245C467.018 57.6851 467.718 57.4653 468.558 57.4653C469.383 57.4653 470.064 57.6558 470.602 58.0366C471.139 58.4175 471.449 58.9326 471.532 59.582H470.287C470.199 59.2598 470.003 59.0059 469.701 58.8203C469.403 58.6299 469.02 58.5347 468.551 58.5347C468.077 58.5347 467.679 58.6445 467.357 58.8643C467.04 59.084 466.881 59.3672 466.881 59.7139C466.881 59.9824 466.991 60.207 467.21 60.3877C467.435 60.5635 467.782 60.7075 468.25 60.8198L469.466 61.1128C470.218 61.2935 470.772 61.5547 471.129 61.8965C471.49 62.2383 471.671 62.6899 471.671 63.2515C471.671 63.9497 471.371 64.5234 470.77 64.9727C470.169 65.417 469.415 65.6392 468.507 65.6392C467.628 65.6392 466.908 65.4438 466.346 65.0532C465.785 64.6626 465.47 64.1401 465.401 63.4858H466.698C466.805 63.8276 467.018 64.0962 467.335 64.2915C467.652 64.4819 468.058 64.5771 468.551 64.5771C469.083 64.5771 469.52 64.4624 469.862 64.2329C470.204 64.0034 470.375 63.708 470.375 63.3467C470.375 62.8096 469.957 62.4385 469.122 62.2334L467.767 61.9038C467.02 61.7231 466.473 61.4644 466.126 61.1274C465.785 60.7856 465.614 60.3315 465.614 59.7651ZM473.722 65.5V54.4697H474.981V58.8496H475.099C475.299 58.4053 475.604 58.0635 476.014 57.8242C476.429 57.585 476.935 57.4653 477.53 57.4653C478.37 57.4653 479.034 57.7241 479.522 58.2417C480.011 58.7544 480.255 59.4697 480.255 60.3877V65.5H478.995V60.6953C478.995 59.2988 478.387 58.6006 477.171 58.6006C476.478 58.6006 475.938 58.8032 475.553 59.2085C475.172 59.6089 474.981 60.1484 474.981 60.8271V65.5H473.722ZM488.209 59.0913C487.721 59.0913 487.337 59.272 487.059 59.6333C486.786 59.9946 486.649 60.4951 486.649 61.1348C486.649 61.7695 486.786 62.27 487.059 62.6362C487.337 63.0024 487.716 63.1855 488.194 63.1855C488.697 63.1855 489.098 63 489.396 62.6289C489.693 62.2578 489.842 61.7598 489.842 61.1348C489.842 60.5098 489.693 60.0142 489.396 59.6479C489.103 59.2769 488.707 59.0913 488.209 59.0913ZM488.465 54.9897C489.608 54.9897 490.624 55.2168 491.512 55.6709C492.406 56.125 493.099 56.7622 493.592 57.5825C494.09 58.3979 494.339 59.3306 494.339 60.3804C494.339 61.5767 494.09 62.5264 493.592 63.2295C493.094 63.9326 492.425 64.2842 491.585 64.2842C491.156 64.2842 490.79 64.1694 490.487 63.9399C490.189 63.7104 490.018 63.415 489.974 63.0537H489.857C489.701 63.4248 489.464 63.7129 489.146 63.918C488.829 64.1182 488.456 64.2183 488.026 64.2183C487.264 64.2183 486.649 63.9326 486.18 63.3613C485.711 62.79 485.477 62.0381 485.477 61.1055C485.477 60.2168 485.714 59.4917 486.188 58.9302C486.661 58.3638 487.274 58.0806 488.026 58.0806C488.412 58.0806 488.758 58.1733 489.066 58.3589C489.374 58.5444 489.598 58.7959 489.74 59.1133H489.857V58.2197H490.963V62.519C490.963 62.7778 491.034 62.978 491.175 63.1196C491.322 63.2612 491.527 63.332 491.791 63.332C492.25 63.332 492.616 63.0635 492.889 62.5264C493.167 61.9893 493.307 61.269 493.307 60.3657C493.307 59.4917 493.099 58.7178 492.684 58.0439C492.274 57.3701 491.693 56.8477 490.941 56.4766C490.194 56.1006 489.337 55.9126 488.37 55.9126C487.428 55.9126 486.581 56.1348 485.829 56.5791C485.082 57.0234 484.498 57.646 484.078 58.4468C483.658 59.2427 483.448 60.1411 483.448 61.1421C483.448 62.7046 483.915 63.9521 484.847 64.8848C485.785 65.8174 487.037 66.2837 488.604 66.2837C489.107 66.2837 489.583 66.252 490.033 66.1885C490.487 66.125 490.829 66.0396 491.058 65.9321V66.855C490.365 67.0942 489.542 67.2139 488.59 67.2139C486.7 67.2139 485.199 66.6621 484.085 65.5586C482.972 64.4551 482.416 62.9683 482.416 61.0981C482.416 60.2046 482.562 59.3794 482.855 58.6226C483.153 57.8608 483.565 57.2139 484.093 56.6816C484.62 56.1494 485.257 55.7344 486.004 55.4365C486.756 55.1387 487.577 54.9897 488.465 54.9897ZM496.324 65.5V57.6045H497.525V58.8496H497.643C497.823 58.4102 498.104 58.0708 498.485 57.8315C498.866 57.5874 499.32 57.4653 499.847 57.4653C500.365 57.4653 500.809 57.5898 501.18 57.8389C501.556 58.0879 501.839 58.4248 502.03 58.8496H502.147C502.362 58.4248 502.684 58.0879 503.114 57.8389C503.543 57.5898 504.027 57.4653 504.564 57.4653C505.37 57.4653 505.99 57.6899 506.424 58.1392C506.859 58.5835 507.076 59.2183 507.076 60.0435V65.5H505.816V60.3364C505.816 59.1792 505.262 58.6006 504.154 58.6006C503.617 58.6006 503.177 58.7764 502.835 59.1279C502.494 59.4795 502.323 59.9116 502.323 60.4243V65.5H501.063V60.1387C501.063 59.6699 500.912 59.2964 500.609 59.0181C500.311 58.7397 499.913 58.6006 499.415 58.6006C498.902 58.6006 498.468 58.7959 498.111 59.1865C497.76 59.5771 497.584 60.0508 497.584 60.6074V65.5H496.324ZM511.808 64.5332C512.457 64.5332 512.994 64.3452 513.419 63.9692C513.849 63.5933 514.063 63.1221 514.063 62.5557V61.8306L511.939 61.9697C511.344 62.0088 510.907 62.1333 510.628 62.3433C510.35 62.5532 510.211 62.8584 510.211 63.2588C510.211 63.6543 510.36 63.9668 510.658 64.1963C510.956 64.4209 511.339 64.5332 511.808 64.5332ZM511.573 65.6392C510.797 65.6392 510.157 65.4268 509.654 65.002C509.156 64.5723 508.907 64.001 508.907 63.2881C508.907 62.585 509.156 62.0332 509.654 61.6328C510.152 61.2324 510.863 61.0054 511.786 60.9517L514.063 60.8125V60.0947C514.063 59.6064 513.912 59.2329 513.609 58.9741C513.307 58.7153 512.862 58.5859 512.276 58.5859C511.803 58.5859 511.41 58.6714 511.097 58.8423C510.785 59.0132 510.584 59.2549 510.497 59.5674H509.222C509.305 58.9375 509.63 58.4297 510.196 58.0439C510.768 57.6582 511.476 57.4653 512.32 57.4653C513.277 57.4653 514.017 57.6973 514.54 58.1611C515.062 58.625 515.323 59.2695 515.323 60.0947V65.5H514.122V64.3354H514.005C513.751 64.7554 513.414 65.0776 512.994 65.3022C512.574 65.5269 512.101 65.6392 511.573 65.6392ZM517.682 65.5V57.6045H518.941V65.5H517.682ZM518.934 55.7441C518.763 55.915 518.556 56.0005 518.312 56.0005C518.067 56.0005 517.86 55.915 517.689 55.7441C517.518 55.5684 517.433 55.3608 517.433 55.1216C517.433 54.8823 517.518 54.6772 517.689 54.5063C517.86 54.3306 518.067 54.2427 518.312 54.2427C518.556 54.2427 518.763 54.3306 518.934 54.5063C519.105 54.6772 519.19 54.8823 519.19 55.1216C519.19 55.3608 519.105 55.5684 518.934 55.7441ZM521.417 65.5V54.4697H522.677V65.5H521.417ZM526.163 65.5732C525.904 65.5732 525.68 65.4805 525.489 65.2949C525.304 65.1045 525.211 64.8799 525.211 64.6211C525.211 64.3574 525.304 64.1328 525.489 63.9473C525.68 63.7617 525.904 63.6689 526.163 63.6689C526.427 63.6689 526.651 63.7617 526.837 63.9473C527.022 64.1328 527.115 64.3574 527.115 64.6211C527.115 64.8799 527.022 65.1045 526.837 65.2949C526.651 65.4805 526.427 65.5732 526.163 65.5732ZM529.576 65.5V57.6045H530.777V58.7764H530.895C531.012 58.3906 531.275 58.0757 531.686 57.8315C532.096 57.5874 532.562 57.4653 533.084 57.4653C533.324 57.4653 533.534 57.4775 533.714 57.502V58.7617C533.543 58.7129 533.275 58.6885 532.909 58.6885C532.308 58.6885 531.812 58.8691 531.422 59.2305C531.031 59.5918 530.836 60.0508 530.836 60.6074V65.5H529.576ZM541.676 57.6045V65.5H540.475V64.2622H540.357C540.157 64.7065 539.85 65.0483 539.435 65.2876C539.02 65.522 538.512 65.6392 537.911 65.6392C537.032 65.6392 536.363 65.3877 535.904 64.8848C535.445 64.3818 535.216 63.6592 535.216 62.7168V57.6045H536.476V62.4092C536.476 63.127 536.617 63.6543 536.9 63.9912C537.184 64.3232 537.638 64.4893 538.263 64.4893C538.951 64.4893 539.481 64.2964 539.852 63.9106C540.228 63.52 540.416 62.9756 540.416 62.2773V57.6045H541.676Z" fill="black"/>
<defs>
<linearGradient id="paint0_linear_436_719" x1="3.10783e-08" y1="53" x2="923.084" y2="64.5246" gradientUnits="userSpaceOnUse">
<stop stop-color="#B6EFFF" stop-opacity="0.6"/>
<stop offset="1" stop-color="white"/>
</linearGradient>
</defs>
</svg>
