<svg width="1210" height="707" viewBox="0 0 1210 707" fill="none" xmlns="http://www.w3.org/2000/svg">
<circle cx="1065" cy="265" r="41.5" fill="url(#paint0_linear_2224_823)" stroke="#B3DEF1"/>
<ellipse cx="1079.22" cy="250.785" rx="14.2154" ry="14.2154" fill="#F5F5F5"/>
<circle cx="1047.23" cy="256.923" r="8.07692" fill="#F5F5F5"/>
<circle cx="29.5" cy="575.5" r="29" fill="url(#paint1_linear_2224_823)" stroke="#B3DEF1"/>
<circle cx="39.4846" cy="565.515" r="9.98462" fill="#F5F5F5"/>
<ellipse cx="17.0193" cy="569.827" rx="5.67308" ry="5.67308" fill="#F5F5F5"/>
<circle cx="1066" cy="464" r="18.5" fill="url(#paint2_linear_2224_823)" stroke="#B3DEF1"/>
<circle cx="1072.43" cy="457.569" r="6.43077" fill="#F5F5F5"/>
<circle cx="1057.96" cy="460.346" r="3.65385" fill="#F5F5F5"/>
<circle cx="1189" cy="686" r="20.5" fill="url(#paint3_linear_2224_823)" stroke="#B3DEF1"/>
<ellipse cx="1196.11" cy="678.892" rx="7.10769" ry="7.10769" fill="#F5F5F5"/>
<circle cx="1180.12" cy="681.962" r="4.03846" fill="#F5F5F5"/>
<circle cx="43.5" cy="15.5" r="15" fill="url(#paint4_linear_2224_823)" stroke="#B3DEF1"/>
<circle cx="48.7462" cy="10.2538" r="5.24615" fill="#F5F5F5"/>
<circle cx="36.9423" cy="12.5192" r="2.98077" fill="#F5F5F5"/>
<defs>
<linearGradient id="paint0_linear_2224_823" x1="1046.26" y1="296.338" x2="1179.69" y2="208.138" gradientUnits="userSpaceOnUse">
<stop stop-color="#BBE4F7"/>
<stop offset="1" stop-color="#D5EFFD" stop-opacity="0"/>
</linearGradient>
<linearGradient id="paint1_linear_2224_823" x1="16.3385" y1="597.512" x2="110.058" y2="535.562" gradientUnits="userSpaceOnUse">
<stop stop-color="#BBE4F7"/>
<stop offset="1" stop-color="#D5EFFD" stop-opacity="0"/>
</linearGradient>
<linearGradient id="paint2_linear_2224_823" x1="1057.52" y1="478.177" x2="1117.88" y2="438.277" gradientUnits="userSpaceOnUse">
<stop stop-color="#BBE4F7"/>
<stop offset="1" stop-color="#D5EFFD" stop-opacity="0"/>
</linearGradient>
<linearGradient id="paint3_linear_2224_823" x1="1179.63" y1="701.669" x2="1246.35" y2="657.569" gradientUnits="userSpaceOnUse">
<stop stop-color="#BBE4F7"/>
<stop offset="1" stop-color="#D5EFFD" stop-opacity="0"/>
</linearGradient>
<linearGradient id="paint4_linear_2224_823" x1="36.5846" y1="27.0654" x2="85.8269" y2="-5.48461" gradientUnits="userSpaceOnUse">
<stop stop-color="#BBE4F7"/>
<stop offset="1" stop-color="#D5EFFD" stop-opacity="0"/>
</linearGradient>
</defs>
</svg>
