<svg width="651" height="459" viewBox="0 0 651 459" fill="none" xmlns="http://www.w3.org/2000/svg">
<path d="M424.495 9.332C346.727 -1.555 277.405 23.504 229.372 71.634C181.339 119.764 202.077 124.949 117.05 148.28C32.0232 171.61 -4.26876 241.083 0.397243 325.073C5.06424 409.063 46.5402 455.206 188.079 456.243C329.618 457.279 471.675 464.019 530.779 447.947C589.883 431.875 639.656 404.397 641.729 328.702C643.802 253.007 605.956 252.489 588.328 205.31C570.701 158.13 636.459 39.008 424.495 9.332Z" fill="#FFCE43"/>
<path d="M597.062 140.552H542.738V180.028H489.136V131.861H443.867V103.612H388.454V147.796H363.467V94.558H351.515V72.465V38.421H298.277V72.465H283.065V113.752H250.108V49.649H181.66V92.385H121.539V165.18H69.0252V205.017H42.9502V237.251H11.8032V355.317H42.9502H55.9882H69.0252H87.1352H121.539H181.66H212.081H241.054H250.108H270.752H283.065H295.016H298.277H331.594H351.515H363.467H388.454H404.752H432.639H443.867H494.932H500.002H542.738H548.17H580.403H597.062H633.64V201.034H597.062V140.552Z" fill="#314984"/>
<path d="M113.21 173.872H76.6302V178.58H113.21V173.872Z" fill="#69A4F9"/>
<path d="M113.21 182.745H76.6302V187.453H113.21V182.745Z" fill="#69A4F9"/>
<path d="M113.21 191.618H76.6302V196.326H113.21V191.618Z" fill="#69A4F9"/>
<path d="M113.21 200.492H76.6302V205.199H113.21V200.492Z" fill="#69A4F9"/>
<path d="M627.302 209.183H600.323V213.89H627.302V209.183Z" fill="#69A4F9"/>
<path d="M627.302 218.056H600.323V222.764H627.302V218.056Z" fill="#69A4F9"/>
<path d="M627.302 226.928H600.323V231.636H627.302V226.928Z" fill="#69A4F9"/>
<path d="M627.302 235.802H600.323V240.51H627.302V235.802Z" fill="#69A4F9"/>
<path d="M160.29 98.722H155.243V156.126H160.29V98.722Z" fill="#69A4F9"/>
<path d="M150.776 98.722H145.728V156.126H150.776V98.722Z" fill="#69A4F9"/>
<path d="M141.262 98.722H136.214V156.126H141.262V98.722Z" fill="#69A4F9"/>
<path d="M131.747 98.722H126.7V156.126H131.747V98.722Z" fill="#69A4F9"/>
<path d="M483.342 137.112H478.294V181.476H483.342V137.112Z" fill="#69A4F9"/>
<path d="M473.829 137.112H468.78V181.476H473.829V137.112Z" fill="#69A4F9"/>
<path d="M464.314 137.112H459.265V181.476H464.314V137.112Z" fill="#69A4F9"/>
<path d="M454.798 137.112H449.751V181.476H454.798V137.112Z" fill="#69A4F9"/>
<path d="M194.401 58.703H189.535V68.301H194.401V58.703Z" fill="#69A4F9"/>
<path d="M202.55 58.703H197.684V68.301H202.55V58.703Z" fill="#69A4F9"/>
<path d="M210.699 58.703H205.832V68.301H210.699V58.703Z" fill="#69A4F9"/>
<path d="M218.847 58.703H213.981V68.301H218.847V58.703Z" fill="#69A4F9"/>
<path d="M226.997 58.703H222.13V68.301H226.997V58.703Z" fill="#69A4F9"/>
<path d="M235.146 58.703H230.28V68.301H235.146V58.703Z" fill="#69A4F9"/>
<path d="M243.293 58.703H238.427V68.301H243.293V58.703Z" fill="#69A4F9"/>
<path d="M194.401 72.284H189.535V81.88H194.401V72.284Z" fill="#69A4F9"/>
<path d="M202.55 72.284H197.684V81.88H202.55V72.284Z" fill="#69A4F9"/>
<path d="M210.699 72.284H205.832V81.88H210.699V72.284Z" fill="#69A4F9"/>
<path d="M218.847 72.284H213.981V81.88H218.847V72.284Z" fill="#69A4F9"/>
<path d="M226.997 72.284H222.13V81.88H226.997V72.284Z" fill="#69A4F9"/>
<path d="M235.146 72.284H230.28V81.88H235.146V72.284Z" fill="#69A4F9"/>
<path d="M243.293 72.284H238.427V81.88H243.293V72.284Z" fill="#69A4F9"/>
<path d="M556.398 149.334H551.531V158.932H556.398V149.334Z" fill="#69A4F9"/>
<path d="M564.548 149.334H559.681V158.932H564.548V149.334Z" fill="#69A4F9"/>
<path d="M572.696 149.334H567.829V158.932H572.696V149.334Z" fill="#69A4F9"/>
<path d="M580.846 149.334H575.979V158.932H580.846V149.334Z" fill="#69A4F9"/>
<path d="M588.993 149.334H584.124V158.932H588.993V149.334Z" fill="#69A4F9"/>
<path d="M556.398 162.916H551.531V172.513H556.398V162.916Z" fill="#69A4F9"/>
<path d="M564.548 162.916H559.681V172.513H564.548V162.916Z" fill="#69A4F9"/>
<path d="M572.696 162.916H567.829V172.513H572.696V162.916Z" fill="#69A4F9"/>
<path d="M580.846 162.916H575.979V172.513H580.846V162.916Z" fill="#69A4F9"/>
<path d="M588.993 162.916H584.124V172.513H588.993V162.916Z" fill="#69A4F9"/>
<path d="M194.401 85.866H189.535V95.463H194.401V85.866Z" fill="#69A4F9"/>
<path d="M202.55 85.866H197.684V95.463H202.55V85.866Z" fill="#69A4F9"/>
<path d="M210.699 85.866H205.832V95.463H210.699V85.866Z" fill="#69A4F9"/>
<path d="M218.847 85.866H213.981V95.463H218.847V85.866Z" fill="#69A4F9"/>
<path d="M226.997 85.866H222.13V95.463H226.997V85.866Z" fill="#69A4F9"/>
<path d="M235.146 85.866H230.28V95.463H235.146V85.866Z" fill="#69A4F9"/>
<path d="M243.293 85.866H238.427V95.463H243.293V85.866Z" fill="#69A4F9"/>
<path d="M194.401 99.447H189.535V109.044H194.401V99.447Z" fill="#69A4F9"/>
<path d="M202.55 99.447H197.684V109.044H202.55V99.447Z" fill="#69A4F9"/>
<path d="M210.699 99.447H205.832V109.044H210.699V99.447Z" fill="#69A4F9"/>
<path d="M218.847 99.447H213.981V109.044H218.847V99.447Z" fill="#69A4F9"/>
<path d="M226.997 99.447H222.13V109.044H226.997V99.447Z" fill="#69A4F9"/>
<path d="M235.146 99.447H230.28V109.044H235.146V99.447Z" fill="#69A4F9"/>
<path d="M243.293 99.447H238.427V109.044H243.293V99.447Z" fill="#69A4F9"/>
<path d="M403.01 112.665H398.143V122.262H403.01V112.665Z" fill="#69A4F9"/>
<path d="M411.157 112.665H406.29V122.262H411.157V112.665Z" fill="#69A4F9"/>
<path d="M419.307 112.665H414.44V122.262H419.307V112.665Z" fill="#69A4F9"/>
<path d="M427.456 112.665H422.588V122.262H427.456V112.665Z" fill="#69A4F9"/>
<path d="M435.604 112.665H430.738V122.262H435.604V112.665Z" fill="#69A4F9"/>
<path d="M403.01 126.246H398.143V135.844H403.01V126.246Z" fill="#69A4F9"/>
<path d="M411.157 126.246H406.29V135.844H411.157V126.246Z" fill="#69A4F9"/>
<path d="M419.307 126.246H414.44V135.844H419.307V126.246Z" fill="#69A4F9"/>
<path d="M427.456 126.246H422.588V135.844H427.456V126.246Z" fill="#69A4F9"/>
<path d="M435.604 126.246H430.738V135.844H435.604V126.246Z" fill="#69A4F9"/>
<path d="M403.01 139.827H398.143V149.425H403.01V139.827Z" fill="#69A4F9"/>
<path d="M411.157 139.827H406.29V149.425H411.157V139.827Z" fill="#69A4F9"/>
<path d="M419.307 139.827H414.44V149.425H419.307V139.827Z" fill="#69A4F9"/>
<path d="M427.456 139.827H422.588V149.425H427.456V139.827Z" fill="#69A4F9"/>
<path d="M435.604 139.827H430.738V149.425H435.604V139.827Z" fill="#69A4F9"/>
<path d="M403.01 153.409H398.143V163.005H403.01V153.409Z" fill="#69A4F9"/>
<path d="M411.157 153.409H406.29V163.005H411.157V153.409Z" fill="#69A4F9"/>
<path d="M419.307 153.409H414.44V163.005H419.307V153.409Z" fill="#69A4F9"/>
<path d="M427.456 153.409H422.588V163.005H427.456V153.409Z" fill="#69A4F9"/>
<path d="M435.604 153.409H430.738V163.005H435.604V153.409Z" fill="#69A4F9"/>
<path d="M311.109 48.018H306.243V57.616H311.109V48.018Z" fill="#69A4F9"/>
<path d="M319.258 48.018H314.393V57.616H319.258V48.018Z" fill="#69A4F9"/>
<path d="M327.407 48.018H322.541V57.616H327.407V48.018Z" fill="#69A4F9"/>
<path d="M335.555 48.018H330.691V57.616H335.555V48.018Z" fill="#69A4F9"/>
<path d="M343.704 48.018H338.837V57.616H343.704V48.018Z" fill="#69A4F9"/>
<path d="M311.109 61.599H306.243V71.197H311.109V61.599Z" fill="#69A4F9"/>
<path d="M319.258 61.599H314.393V71.197H319.258V61.599Z" fill="#69A4F9"/>
<path d="M327.407 61.599H322.541V71.197H327.407V61.599Z" fill="#69A4F9"/>
<path d="M335.555 61.599H330.691V71.197H335.555V61.599Z" fill="#69A4F9"/>
<path d="M311.109 75.181H306.243V84.778H311.109V75.181Z" fill="#69A4F9"/>
<path d="M319.258 75.181H314.393V84.778H319.258V75.181Z" fill="#69A4F9"/>
<path d="M327.407 75.181H322.541V84.778H327.407V75.181Z" fill="#69A4F9"/>
<path d="M311.109 88.763H306.243V98.36H311.109V88.763Z" fill="#69A4F9"/>
<path d="M319.258 88.763H314.393V98.36H319.258V88.763Z" fill="#69A4F9"/>
<mask id="mask0_434_162" style="mask-type:luminance" maskUnits="userSpaceOnUse" x="0" y="6" width="642" height="453">
<path d="M424.495 9.332C346.727 -1.555 277.405 23.504 229.372 71.634C181.339 119.764 202.077 124.949 117.05 148.28C32.0232 171.61 -4.26876 241.083 0.397243 325.073C5.06424 409.063 46.5402 455.206 188.079 456.243C329.618 457.279 471.675 464.019 530.779 447.947C589.883 431.875 639.656 404.397 641.729 328.702C643.802 253.007 605.956 252.489 588.328 205.31C570.701 158.13 636.459 39.008 424.495 9.332Z" fill="white"/>
</mask>
<g mask="url(#mask0_434_162)">
<path d="M-85.0348 299.759C-85.0348 299.759 299.122 274.874 723.717 304.425V514.39H-78.8138L-85.0348 299.759Z" fill="#869CD1"/>
</g>
<path d="M453.04 53.142C451.273 53.142 449.537 53.463 447.892 54.023C448.004 53.233 448.08 52.433 448.08 51.615C448.08 41.642 439.596 33.556 429.131 33.556C418.666 33.556 410.181 41.643 410.181 51.615C410.181 51.945 410.215 52.268 410.234 52.593C408 50.95 405.15 49.962 402.045 49.962C394.88 49.962 389.072 55.2 389.072 61.662C389.072 61.822 389.09 61.977 389.098 62.135C387.753 61.671 386.32 61.408 384.86 61.408C378.619 61.408 373.557 66.066 373.557 71.813C373.557 77.559 377.852 80.101 384.094 80.101H454.055C462.345 80.101 468.045 76.434 468.045 68.147C468.045 59.86 461.326 53.142 453.04 53.142Z" fill="#C7D9F9"/>
<path d="M223.611 19.919C223.011 19.919 222.42 19.962 221.831 20.025C222.146 18.792 222.332 17.509 222.332 16.183C222.332 7.245 214.73 0 205.352 0C197.304 0 190.581 5.339 188.83 12.5C186.392 9.586 182.534 7.693 178.176 7.693C170.802 7.693 164.826 13.084 164.826 19.734C164.826 21.227 165.14 22.649 165.691 23.967C164.281 23.508 162.765 23.253 161.223 23.253C154.962 23.253 149.886 27.428 149.886 32.578C149.886 37.728 154.194 40.006 160.455 40.006C160.924 40.006 161.395 39.989 161.866 39.964L161.826 40.006H224.524C231.951 40.006 237.06 37.274 237.06 31.099C237.059 24.926 231.038 19.919 223.611 19.919Z" fill="#C7D9F9"/>
<path d="M102.622 118.468C101.849 118.468 101.088 118.575 100.35 118.757C100.573 117.883 100.702 116.974 100.702 116.034C100.702 109.495 94.9712 104.193 87.8972 104.193C82.3502 104.193 77.6392 107.462 75.8612 112.024C74.0952 110.365 71.5852 109.321 68.7902 109.321C63.4492 109.321 59.1202 113.11 59.1202 117.782C59.1202 118.822 59.3462 119.813 59.7372 120.734C58.8812 120.557 57.9932 120.455 57.0932 120.455C51.7902 120.455 47.4902 123.75 47.4902 127.813C47.4902 131.409 50.3502 133.227 54.6822 133.6L54.6092 133.675H101.892C101.892 133.675 101.9 133.653 101.914 133.617C102.346 133.652 102.781 133.675 103.212 133.675C108.03 133.675 111.346 131.606 111.346 126.932C111.347 122.258 107.441 118.468 102.622 118.468Z" fill="#C7D9F9"/>
<path d="M597.231 83.213C596.458 83.213 595.697 83.319 594.959 83.502C595.181 82.627 595.311 81.719 595.311 80.779C595.311 74.24 589.579 68.938 582.506 68.938C576.958 68.938 572.248 72.208 570.47 76.77C568.705 75.11 566.194 74.067 563.399 74.067C558.06 74.067 553.729 77.856 553.729 82.528C553.729 83.568 553.955 84.559 554.345 85.48C553.489 85.303 552.603 85.201 551.704 85.201C546.397 85.201 542.1 88.495 542.1 92.559C542.1 96.155 544.958 97.973 549.289 98.346L549.219 98.422H596.501C596.501 98.422 596.509 98.401 596.523 98.365C596.955 98.399 597.388 98.422 597.822 98.422C602.641 98.422 605.955 96.354 605.955 91.679C605.955 87.003 602.047 83.213 597.231 83.213Z" fill="#C7D9F9"/>
<path d="M504.323 325.033C503.643 319.996 499.569 316.492 495.153 314.551C489.181 311.927 482.605 311.672 476.191 311.478C465.939 311.167 455.678 311.085 445.422 311.228C424.903 311.515 404.414 312.74 383.999 314.81C383.198 314.891 382.724 315.455 382.571 316.082C362.958 327.02 339.69 322.587 318.219 323.537C296.152 324.514 276.638 333.564 257.181 343.252C215.085 364.206 172.867 386.099 127.268 398.487C115.995 401.55 104.547 404.008 92.9812 405.671C86.9892 406.53 80.9902 407.025 74.9672 407.567C71.8172 407.85 68.2853 408.145 65.6873 410.157C60.7573 413.972 62.8802 419.881 67.6052 422.624C70.4932 424.302 73.8313 424.988 77.1153 425.31C83.9253 425.977 90.8082 426.203 97.6382 426.615C148.955 429.703 200.35 431.496 251.759 431.992C265.809 432.126 279.863 432.165 293.914 432.106C307.968 432.048 322.308 432.627 336.324 431.543C343.672 430.975 353.953 426.529 351.814 417.255C349.948 409.156 340.418 410.493 334.135 407.855C341.941 405.567 353.32 407.282 357.264 398.921C358.638 396.012 358.129 392.686 356.419 390.354C362.408 390.196 368.398 390.038 374.388 389.88C380.925 389.708 387.716 390.046 394.201 389.142C401.595 388.114 409.576 384.25 407.466 375.583C407.232 374.623 406.435 373.24 406.525 372.238C406.913 367.979 409.575 369.003 412.043 369.202C415.791 369.506 419.528 369.917 423.283 370.136C429.902 370.524 436.645 370.434 443.097 368.74C449.672 367.015 458.589 360.183 454.458 353.288C460.385 352.392 466.007 350.274 470.958 346.779C474.051 344.594 476.64 341.973 479.022 339.046C482.552 334.704 486.48 334.264 491.646 333.157C496.569 332.103 505.285 332.167 504.323 325.033Z" fill="#647CB5"/>
<path d="M631.289 378.312C617.799 378.017 604.766 382.582 591.363 383.352C582.884 383.839 574.39 382.391 565.925 383.276C559.022 383.998 552.876 386.824 546.402 389.084C533.022 393.752 518.921 393.75 504.943 392.997C504.692 392.731 504.33 392.559 503.847 392.573C502.485 392.613 501.123 392.652 499.76 392.693C499.058 392.647 498.356 392.603 497.655 392.558C497.288 392.535 496.99 392.622 496.758 392.78C482.134 393.202 467.511 393.619 452.887 394.053C442.19 394.37 430.229 394.895 423.271 404.202C422.808 404.821 423.119 406.023 423.83 406.329C435.565 411.411 448.967 408.392 461.365 408.756C475.793 409.177 490.104 411.211 504.464 412.535C518.259 413.805 532.083 414.33 545.846 412.417C553.374 411.37 560.834 409.78 568.409 409.055C574.676 408.453 580.884 408.801 587.162 408.932C592.358 409.04 597.799 408.953 602.775 407.251C608.462 405.309 611.712 399.901 617.153 397.923C620.951 396.541 625.859 396.838 629.875 396.305C632.684 395.935 635.487 395.509 638.275 395.004C642.394 394.259 647.605 393.44 649.437 389.074C653.429 379.557 636.915 378.436 631.289 378.312Z" fill="#647CB5"/>
<path d="M125.215 228.511C121.95 229.122 111.606 238.879 112.773 245.879C113.94 252.878 117.569 254.692 133.641 264.932L146.084 243.288C146.084 243.288 129.363 227.732 125.215 228.511Z" fill="#20222B"/>
<path d="M74.5213 344.407C87.0343 315.879 113.655 303.444 136.425 309.963C158.219 316.2 161.723 349.489 153.018 378.833C144.164 408.682 112.791 422.786 91.1143 413.28C69.4383 403.774 62.0103 372.939 74.5213 344.407Z" fill="#20222B"/>
<path d="M431.494 328.443L374.204 324.036L370.057 292.41L430.976 274.523L441.863 288.002C441.863 288.002 438.753 322.74 431.494 328.443Z" fill="black"/>
<path d="M343.616 364.217L271.291 362.143L281.66 304.852L335.58 297.854L365.65 308.741L343.616 364.217Z" fill="#5B5E5F"/>
<path d="M367.245 314.977C376.345 290.296 397.535 283.336 413.206 289.818C431.32 297.311 431.117 325.648 422.559 350.26C413.852 375.297 388.118 385.162 371.412 375.42C354.706 365.678 362.281 328.443 367.245 314.977Z" fill="#20222B"/>
<path d="M389.963 330.754C393.719 315.786 402.603 305.337 409.803 307.417C417.001 309.494 419.793 323.31 416.035 338.278C412.279 353.245 403.396 363.694 396.196 361.616C388.996 359.537 386.205 345.721 389.963 330.754Z" fill="#B8C9F1"/>
<path d="M409.803 307.417C407.518 306.756 405.062 307.363 402.656 308.972C403.907 308.665 405.15 308.659 406.349 309.005C413.174 310.975 415.991 323.393 412.64 336.74C409.288 350.089 401.039 359.312 394.215 357.344C392.405 356.822 390.881 355.559 389.676 353.746C390.993 357.879 393.215 360.756 396.196 361.617C403.396 363.694 412.279 353.245 416.035 338.278C419.793 323.31 417.001 309.494 409.803 307.417Z" fill="#8197C1"/>
<path d="M397.221 333.016C398.501 327.916 401.559 324.368 404.05 325.086C406.541 325.804 407.527 330.521 406.243 335.621C404.963 340.719 401.906 344.27 399.415 343.55C396.922 342.833 395.94 338.116 397.221 333.016Z" fill="#8197C1"/>
<path d="M249.791 352.846C262.455 323.967 290.105 311.691 314.002 318.66C336.876 325.332 341.023 359.29 332.35 389.054C323.528 419.327 290.936 433.238 268.139 423.239C245.341 413.24 237.127 381.724 249.791 352.846Z" fill="#20222B"/>
<path d="M449.727 256.464C446.115 251.147 429.291 242.898 417.884 239.399C417.884 239.399 409.85 205.31 395.85 193.255C381.853 181.202 320.026 168.758 253.145 169.277C186.264 169.795 165.526 192.348 160.859 196.755C156.193 201.162 145.565 218.271 131.567 262.081C131.567 262.081 96.8302 271.672 70.1292 292.41C43.4292 313.148 44.7252 327.924 46.7982 360.328C48.8722 392.732 82.3132 391.954 123.011 398.694C163.71 405.433 233.961 406.212 252.366 402.064C270.771 397.917 278.029 389.621 277.512 387.028C276.993 384.437 273.364 346.589 298.509 319.629C322.098 293.965 348.8 331.814 343.614 364.217C343.614 364.217 352.429 366.55 377.314 353.588C377.314 353.588 376.018 311.075 397.274 294.485C418.532 277.893 437.456 293.448 431.493 328.444C431.493 328.444 442.64 322.482 446.269 318.334C449.9 314.186 455.777 265.365 449.727 256.464Z" fill="#3B59AD"/>
<path d="M279.9 355.098C273.799 356.94 267.635 358.566 261.4 359.9C246.893 363.004 232.097 364.755 217.257 364.963C200.739 365.195 184.221 365.67 167.703 365.848C140.939 366.14 113.933 364.02 87.7423 358.251C73.3873 355.09 58.1783 350.402 45.8483 341.92C45.9603 347.419 46.3603 353.477 46.7983 360.327C48.8723 392.731 82.3133 391.953 123.011 398.693C163.71 405.432 233.961 406.211 252.366 402.063C270.771 397.916 278.029 389.62 277.512 387.027C277.206 385.5 275.823 371.695 279.9 355.098Z" fill="#EA9036"/>
<path opacity="0.6" d="M449.727 256.464C446.115 251.147 429.291 242.898 417.884 239.399C417.884 239.399 409.85 205.31 395.85 193.255C385.464 184.311 348.739 175.154 303.158 171.235C311.879 172.129 320.618 172.943 329.242 174.397C339.871 176.188 349.556 179.486 358.154 186.104C365.627 191.856 372.081 198.899 377.409 206.672C384.237 216.635 389.724 227.919 392.139 239.817C394.471 251.307 393.306 262.842 389.216 273.824C380.454 297.354 361.31 316.138 340.244 329.09C339.631 329.467 339.004 329.822 338.385 330.192C343.195 340.072 345.491 352.5 343.616 364.217C343.616 364.217 352.431 366.55 377.316 353.588C377.316 353.588 376.02 311.075 397.276 294.485C418.534 277.893 437.458 293.448 431.495 328.444C431.495 328.444 442.642 322.482 446.271 318.334C449.9 314.186 455.777 265.365 449.727 256.464Z" fill="#3B59AD"/>
<path d="M184.622 358.773C184.622 358.773 186.004 344.084 182.721 337.342C179.437 330.602 99.2493 325.765 96.4843 327.319C93.7183 328.875 89.9173 334.924 89.3993 344.947C89.3993 344.947 171.142 358.946 184.622 358.773Z" fill="#20222B"/>
<path d="M76.6103 319.629C76.7623 318.57 68.5743 311.508 63.1303 307.791C57.6873 304.076 56.9093 303.73 55.8723 304.335C54.8353 304.939 49.3053 312.457 48.7863 318.247C48.2683 324.036 59.5873 328.962 63.3893 329.566C67.1913 330.17 71.6853 330.776 73.3263 328.876C74.9693 326.973 76.4373 320.84 76.6103 319.629Z" fill="white"/>
<path d="M277.055 380.359C276.907 372.091 277.842 357.377 284.075 342.324C282.678 340.484 280.219 338.682 275.958 338.812C267.403 339.071 262.996 348.663 222.816 351.773C182.636 354.884 98.9043 343.478 72.4643 337.775C46.0233 332.071 47.5783 322.546 47.5783 322.546C47.5783 322.546 47.5663 322.538 47.5463 322.527C47.2283 322.339 45.4383 320.845 44.3373 325.98C43.1703 331.423 43.3003 337.128 42.5233 338.618C41.7453 340.108 38.6993 352.422 42.3933 359.551C45.6623 365.858 46.7743 365.424 48.0353 367.977C54.7073 392.638 85.8223 392.536 123.013 398.695C163.712 405.434 233.963 406.213 252.368 402.065C270.773 397.918 278.031 389.622 277.514 387.029C277.395 386.441 277.12 384.031 277.055 380.359Z" fill="#394159"/>
<path d="M66.1553 367.241C68.2253 364.137 66.5003 353.502 64.3403 350.046C62.1803 346.589 57.8603 347.107 47.8363 341.146C44.7173 339.29 43.1703 337.387 42.5223 338.62C41.8743 339.85 39.8983 343.898 40.4053 352.207C40.8373 359.292 44.2943 362.489 50.6013 365.081C56.9093 367.673 63.9083 370.611 66.1553 367.241Z" fill="#D6E6ED"/>
<path d="M87.0663 359.551C87.0663 359.551 103.224 364.994 140.726 368.106C178.229 371.216 193.264 371.216 194.646 372.08C196.028 372.946 196.375 383.487 194.646 385.042C192.917 386.597 170.278 388.153 135.715 383.66C101.15 379.167 90.7813 375.883 89.0533 371.39C87.3253 366.894 85.9433 359.637 87.0663 359.551Z" fill="#D6E6ED"/>
<path d="M209.076 363.698C218.949 363.149 242.517 361.192 244.417 362.575C246.319 363.957 247.874 369.834 247.01 379.511C246.146 389.188 242.172 389.017 228.174 389.534C214.176 390.053 209.337 389.016 208.299 383.658C207.262 378.302 205.966 363.872 209.076 363.698Z" fill="#8197C1"/>
<path d="M214.52 363.439C224.393 362.89 246.491 361.192 248.393 362.575C250.293 363.957 251.849 369.834 250.985 379.511C250.12 389.188 246.146 389.017 232.147 389.534C218.149 390.053 214.346 389.879 213.31 384.522C212.273 379.166 211.409 363.611 214.52 363.439Z" fill="#D6E6ED"/>
<path d="M137.961 260.611C137.961 260.611 149.021 222.59 159.735 207.036C170.45 191.482 172.87 189.409 227.826 188.026C282.783 186.644 300.41 192.174 304.903 196.667C309.396 201.161 288.658 267.523 288.658 267.523C288.658 267.523 233.011 261.301 199.483 260.957C165.957 260.611 137.961 260.611 137.961 260.611Z" fill="#D6E6ED"/>
<path d="M358.824 257.501C358.824 257.501 355.022 202.976 351.393 198.31C347.763 193.643 343.875 193.385 332.988 194.681C322.1 195.977 320.545 196.495 318.212 203.754C315.879 211.012 298.996 262.916 303.954 266.746C309.657 271.154 358.824 257.501 358.824 257.501Z" fill="#D6E6ED"/>
<path d="M390.277 199.088C388.693 198.097 383.538 195.978 372.65 195.2C361.762 194.422 359.687 193.904 360.725 199.865C361.762 205.827 364.354 216.196 365.132 227.342C365.909 238.49 365.391 251.451 367.465 254.303C369.538 257.155 401.164 248.601 403.756 246.526C406.349 244.453 406.349 240.047 404.016 230.196C401.684 220.345 394.425 201.68 390.277 199.088Z" fill="#D6E6ED"/>
<path d="M154.413 234.949C163.331 238.168 172.968 239.027 182.37 239.592C209.852 241.243 237.38 240.415 264.887 240.131C275.48 240.022 286.092 240.256 296.695 240.236C301.959 221.362 307.435 199.199 304.904 196.668C300.411 192.175 282.783 186.645 227.827 188.027C172.871 189.409 170.451 191.483 159.736 207.037C155.571 213.085 151.356 222.528 147.756 231.813C149.851 233.045 152.067 234.102 154.413 234.949Z" fill="white"/>
<path d="M312.169 239.96C327.297 239.364 342.698 237.351 356.609 231.064C355.189 216.434 353.266 200.721 351.393 198.31C347.763 193.643 343.875 193.385 332.988 194.681C322.1 195.977 320.545 196.495 318.212 203.754C316.948 207.685 311.418 224.712 307.399 240.104C308.99 240.065 310.579 240.022 312.169 239.96Z" fill="white"/>
<path d="M365.095 226.887C373.385 222.523 381.577 217.323 388.168 210.995C390.205 209.041 392.397 206.731 394.132 204.169C392.727 201.642 391.39 199.783 390.277 199.088C388.693 198.097 383.538 195.978 372.65 195.2C361.762 194.422 359.687 193.904 360.725 199.865C361.748 205.746 364.281 215.915 365.095 226.887Z" fill="white"/>
<path d="M311.731 263.895C307.9 257.38 307.843 245.747 317.174 241.342C326.507 236.934 341.282 235.898 344.652 239.009C348.022 242.119 356.058 254.303 353.985 262.08C351.91 269.856 346.208 269.856 335.06 272.449C323.913 275.042 319.508 277.116 311.731 263.895Z" fill="#20222B"/>
<path d="M302.398 260.007C302.398 260.007 303.175 264.674 307.842 263.896C312.507 263.118 317.951 258.452 317.951 258.452L321.062 264.675C321.062 264.675 310.175 271.155 307.323 271.933C304.471 272.71 304.213 274.006 304.213 274.006" fill="#20222B"/>
<path d="M201.818 340.108C201.305 336.515 202.077 331.813 209.854 329.479C217.631 327.146 242.517 323.517 246.405 326.628C250.293 329.737 249.775 341.404 244.59 343.218C239.406 345.033 228.259 346.848 217.63 346.329C207.002 345.811 202.336 343.738 201.818 340.108Z" fill="white"/>
<path d="M392.608 267.784C391.462 267.784 390.413 267.017 390.106 265.854C389.736 264.472 390.562 263.053 391.947 262.686L404.648 259.316C406.022 258.945 407.449 259.771 407.818 261.157C408.184 262.54 407.361 263.961 405.977 264.327L393.276 267.696C393.052 267.756 392.829 267.784 392.608 267.784Z" fill="#20222B"/>
<path d="M332.999 285.505C331.686 285.415 330.548 284.431 330.291 283.042C329.982 281.39 331.043 279.79 332.657 279.469L347.481 276.528C349.084 276.203 350.654 277.287 350.961 278.942C351.269 280.594 350.209 282.195 348.592 282.515L333.77 285.455C333.51 285.507 333.253 285.523 332.999 285.505Z" fill="#20222B"/>
<path d="M287.818 368.96C291.203 350.989 301.736 337.889 311.346 339.698C320.957 341.509 326.001 357.542 322.618 375.514C319.233 393.484 308.7 406.584 299.092 404.775C289.481 402.963 284.434 386.929 287.818 368.96Z" fill="#B8C9F1"/>
<path d="M311.346 339.698C308.296 339.124 305.153 340.056 302.173 342.165C303.777 341.694 305.4 341.577 307 341.877C316.109 343.595 321.045 357.977 318.027 374.003C315.01 390.028 305.178 401.629 296.07 399.914C293.654 399.46 291.536 398.107 289.78 396.078C291.92 400.831 295.112 404.024 299.091 404.774C308.7 406.584 319.233 393.483 322.617 375.513C326.001 357.542 320.957 341.509 311.346 339.698Z" fill="#8197C1"/>
<path d="M297.522 370.981C298.675 364.859 302.306 360.405 305.631 361.031C308.958 361.658 310.719 367.128 309.567 373.251C308.414 379.373 304.782 383.827 301.456 383.201C298.13 382.574 296.369 377.104 297.522 370.981Z" fill="#8197C1"/>
<path d="M336.876 159.945C336.876 159.945 271.809 139.207 240.702 169.017L261.7 170.313C261.7 170.313 281.142 149.834 336.098 163.314L336.876 159.945Z" fill="white"/>
<path d="M561.445 385.562C557.648 385.472 554.485 389.027 554.381 393.498C554.275 397.972 557.268 401.669 561.063 401.758C564.859 401.849 568.023 398.294 568.127 393.822C568.233 389.349 565.241 385.651 561.445 385.562Z" fill="#20222B"/>
<path d="M592.108 338.748H637.82C640.633 338.748 642.917 341.029 642.917 343.846L642.773 374.42C642.756 378.099 640.404 381.361 636.918 382.539L592.632 397.317L548.04 395.951C548.04 395.951 549.577 380.021 550.363 374.746C552.909 357.645 557.508 349.045 570.64 345.137L592.108 338.748Z" fill="#3FB9F5"/>
<path d="M621.141 348.942L562.63 348.791C555.445 353.637 552.302 361.722 550.362 374.746C549.576 380.021 548.039 395.951 548.039 395.951L592.631 397.317L636.917 382.539C640.403 381.361 642.756 378.099 642.772 374.42L642.916 343.846C642.916 343.196 642.783 342.578 642.562 342.007L621.141 348.942Z" fill="#3FB9F5"/>
<path d="M578.974 364.844L567.179 364.584L570.311 354.885L582.107 355.144L578.974 364.844Z" fill="#3FB9F5"/>
<path d="M573.422 360.134C573.422 359.238 574.147 358.515 575.042 358.515C575.937 358.515 576.662 359.239 576.662 360.134C576.662 361.029 575.936 361.753 575.042 361.753C574.148 361.753 573.422 361.029 573.422 360.134Z" fill="#231F20"/>
<path d="M567.654 375.774C567.654 373.889 569.182 372.36 571.068 372.36C572.953 372.36 574.481 373.889 574.481 375.774C574.481 377.66 572.953 379.186 571.068 379.186C569.182 379.186 567.654 377.66 567.654 375.774Z" fill="#FFCE43"/>
<path d="M545.534 384.976L593.405 386.964L592.631 397.317L544.668 395.864L545.534 384.976Z" fill="#3FB9F5"/>
<path d="M636.917 382.539C640.403 381.361 642.756 378.099 642.771 374.42L642.916 343.846C642.916 341.727 641.623 339.911 639.783 339.142L619.931 344.106C603.167 348.772 601.094 346.871 595.391 370.893C592.629 382.521 592.671 395.062 592.63 397.318L636.917 382.539Z" fill="#3FB9F5"/>
<path d="M616.13 382.687L611.982 379.576L593.038 386.995C592.653 392.171 592.653 396.142 592.632 397.317L636.918 382.539C640.404 381.361 642.757 378.099 642.773 374.42L642.779 373.211L616.13 382.687Z" fill="#3FB9F5"/>
<path d="M620.377 367.172C620.152 367.172 619.943 367.024 619.879 366.796C619.8 366.523 619.959 366.235 620.235 366.154L638.548 360.894C638.82 360.811 639.109 360.972 639.189 361.249C639.268 361.523 639.11 361.81 638.835 361.89L620.522 367.151C620.474 367.166 620.425 367.172 620.377 367.172Z" fill="#B8C9F1"/>
<path d="M620.454 371.351C620.228 371.351 620.021 371.204 619.956 370.975C619.877 370.702 620.036 370.413 620.311 370.335L638.623 365.072C638.896 364.99 639.186 365.152 639.266 365.427C639.344 365.701 639.184 365.988 638.911 366.069L620.598 371.33C620.55 371.346 620.502 371.351 620.454 371.351Z" fill="#B8C9F1"/>
<path d="M620.53 375.53C620.304 375.53 620.096 375.382 620.033 375.154C619.953 374.881 620.112 374.593 620.386 374.513L638.699 369.253C638.972 369.169 639.262 369.331 639.341 369.608C639.42 369.882 639.261 370.171 638.986 370.251L620.673 375.509C620.625 375.524 620.577 375.53 620.53 375.53Z" fill="#B8C9F1"/>
<path d="M628.768 355.986C628.768 354.662 629.84 353.588 631.165 353.588C632.49 353.588 633.563 354.662 633.563 355.986C633.563 357.31 632.491 358.384 631.165 358.384C629.84 358.385 628.768 357.31 628.768 355.986Z" fill="#314984"/>
<path d="M621.445 357.802C621.445 356.477 622.518 355.402 623.842 355.402C625.166 355.402 626.239 356.477 626.239 357.802C626.239 359.125 625.166 360.2 623.842 360.2C622.518 360.2 621.445 359.125 621.445 357.802Z" fill="#314984"/>
<path d="M635.748 375.299C631.981 374.82 628.468 378.027 627.902 382.465C627.336 386.904 629.931 390.891 633.698 391.371C637.467 391.851 640.976 388.642 641.543 384.204C642.11 379.765 639.516 375.78 635.748 375.299Z" fill="#20222B"/>
<path d="M605.014 387.677C601.075 387.279 597.501 390.718 597.031 395.358C596.562 400.001 599.377 404.086 603.315 404.485C607.255 404.883 610.829 401.444 611.299 396.801C611.767 392.159 608.952 388.074 605.014 387.677Z" fill="#20222B"/>
<path d="M634.221 346.423L633.814 346.281C633.114 346.039 632.745 345.277 632.986 344.578L639.485 325.834C639.618 325.45 639.56 325.041 639.328 324.708C639.095 324.377 638.728 324.183 638.323 324.177L600.805 323.653H600.785C600.305 323.653 599.863 323.932 599.658 324.368L592.866 338.76L592.119 338.752L589.115 339.642C589.072 339.621 589.144 339.47 589.179 339.397L596.844 323.042C597.572 321.497 599.145 320.558 600.848 320.543L638.365 321.067C639.88 321.089 641.236 321.86 642.035 323.17C642.745 324.335 642.793 325.786 642.347 327.074L635.925 345.597C635.683 346.294 634.919 346.664 634.221 346.423Z" fill="#20222B"/>
<path d="M632.166 382.942C632.434 380.848 633.913 379.309 635.472 379.509C637.032 379.707 638.078 381.567 637.81 383.662C637.544 385.757 636.063 387.295 634.505 387.096C632.948 386.899 631.9 385.039 632.166 382.942Z" fill="#8197C1"/>
<path d="M601.489 395.741C601.712 393.55 603.212 391.907 604.842 392.071C606.473 392.237 607.614 394.146 607.393 396.338C607.171 398.528 605.671 400.173 604.041 400.009C602.41 399.844 601.267 397.933 601.489 395.741Z" fill="#8197C1"/>
<path d="M448.344 216.283C448.344 216.283 433.655 227.344 433.395 227.344C433.136 227.344 412.485 205.052 412.485 205.052L403.065 213.865C403.065 213.865 423.286 237.281 428.729 240.996C434.173 244.714 438.926 242.121 445.667 236.504C452.406 230.887 457.159 226.999 457.159 226.999L448.344 216.283Z" fill="#FFDEBB"/>
<path d="M479.323 388.972L467.138 389.491C467.138 389.491 457.935 392.861 451.844 394.677C445.752 396.491 439.626 399.534 441.475 404.656C443.16 409.322 454.695 408.804 469.212 406.73C475.503 405.831 480.618 404.267 481.266 402.842C481.914 401.416 481.396 390.01 479.323 388.972Z" fill="#3FB9F5"/>
<path d="M500.967 389.491C500.967 389.491 500.578 398.046 500.578 399.73C500.578 401.416 499.671 401.804 504.078 403.619C508.485 405.434 525.465 408.544 534.408 408.026C543.35 407.509 539.592 400.637 535.055 397.787C530.519 394.935 515.095 390.268 514.447 390.011C513.799 389.751 500.967 389.491 500.967 389.491Z" fill="#3FB9F5"/>
<path d="M456.033 393.354C454.576 393.833 453.139 394.289 451.844 394.676C445.752 396.49 439.626 399.533 441.475 404.655C442.872 408.525 451.058 408.824 462.091 407.632C461.495 399.694 458.831 395.524 456.033 393.354Z" fill="white"/>
<path d="M481.517 400.802C477.512 402.389 471.164 404.148 461.435 405.176C445.642 406.842 442.619 405.615 441.241 403.795C441.295 404.075 441.368 404.361 441.475 404.656C443.16 409.322 454.695 408.804 469.212 406.73C475.503 405.831 480.618 404.267 481.266 402.842C481.404 402.542 481.488 401.796 481.517 400.802Z" fill="#B8C9F1"/>
<path d="M534.409 408.026C543.351 407.509 539.593 400.637 535.056 397.787C532.956 396.467 528.517 394.756 524.294 393.274C522.521 394.597 520.786 396.594 519.372 399.602C518.191 402.112 518.045 404.56 518.517 406.847C524.16 407.706 530.182 408.272 534.409 408.026Z" fill="white"/>
<path d="M516.91 403.879C507.313 402.001 502.762 400.122 500.597 398.747C500.585 399.168 500.578 399.51 500.578 399.73C500.578 401.416 499.671 401.804 504.078 403.619C508.485 405.434 525.465 408.544 534.408 408.026C539.694 407.719 540.54 405.194 539.414 402.591C536.914 405.433 533.29 407.086 516.91 403.879Z" fill="#B8C9F1"/>
<path d="M462.861 267.135C462.861 267.135 462.343 295.391 462.861 324.295C463.38 353.199 464.936 390.657 464.936 390.657C464.936 390.657 465.842 391.694 472.193 391.694C478.544 391.694 480.749 390.527 480.749 390.527C480.749 390.527 481.397 346.588 481.785 332.07C482.174 317.554 484.118 292.927 484.118 292.927C484.118 292.927 496.691 292.797 496.691 293.316C496.691 293.835 497.727 337.127 498.117 349.699C498.507 362.27 500.45 391.046 500.45 391.046C500.45 391.046 509.005 393.508 516.651 390.138C516.651 390.138 515.096 329.738 515.875 311.982C516.651 294.225 516.782 267.87 516.782 267.87L514.707 263.117L466.88 259.748L462.861 267.135Z" fill="#5088E2"/>
<path d="M474.144 260.26L466.879 259.748L462.86 267.136C462.86 267.136 462.789 271.035 462.725 277.409C468.315 275.851 472.496 265.165 474.144 260.26Z" fill="#3A6ACC"/>
<path d="M504.845 262.423C505.931 266.537 508.853 273.116 516.697 277.118C516.762 271.564 516.781 267.87 516.781 267.87L514.706 263.117L504.845 262.423Z" fill="#3A6ACC"/>
<path d="M496.216 192.002C496.216 192.002 519.718 194.421 524.212 196.495C528.706 198.569 544.95 222.936 544.95 222.936L532.161 233.305L520.928 218.788C520.928 218.788 516.436 264.067 516.781 267.871C516.781 267.871 509.911 269.079 487.877 269.079C465.842 269.079 462.86 267.136 462.86 267.136C462.86 267.136 463.638 233.696 464.935 223.584L455.472 231.491C455.472 231.491 446.009 222.289 444.066 216.455C444.066 216.455 471.934 194.551 475.045 193.643C478.156 192.737 496.216 192.002 496.216 192.002Z" fill="#3FB9F5"/>
<path d="M488.469 192.385C487.567 194.966 487.034 199.462 493.58 200.642C501.216 202.021 506.244 196.374 505.976 193.138C500.618 192.455 496.216 192.002 496.216 192.002C496.216 192.002 492.679 192.146 488.469 192.385Z" fill="#FFDEBB"/>
<path d="M481.41 192.855C478.59 193.082 476.201 193.341 475.158 193.616C474.26 202.093 472.124 221.773 471.416 224.104C470.908 225.773 467.187 231.185 464.012 235.621C463.281 249.195 462.862 267.136 462.862 267.136C462.862 267.136 465.844 269.079 487.879 269.079C509.913 269.079 516.783 267.87 516.783 267.87C516.587 265.717 517.943 250.253 519.157 237.251C516.969 234.569 513.938 230.05 514.19 225.789C514.521 220.135 517.032 200.468 517.753 194.885C515.689 194.511 513.361 194.149 511.016 193.814L508.097 214.123L478.934 213.605L481.41 192.855Z" fill="#69A4F9"/>
<path d="M502.091 193.731L503.3 180.942L491.55 181.115L490.512 194.076L502.091 193.731Z" fill="#FFDEBB"/>
<path d="M502.412 190.339L503.301 180.943L491.551 181.115L490.744 191.188C494.707 192.444 499.151 192.926 502.412 190.339Z" fill="#EAB096"/>
<path d="M485.349 130.263C485.349 130.263 479.711 133.373 478.804 142.901C477.896 152.427 480.877 155.472 480.877 155.472L489.432 147.954L485.349 130.263Z" fill="#20222B"/>
<path d="M499.97 133.07L526.573 135.309L520.06 169.773C517.163 184.181 503.134 191.438 488.725 188.541C479.635 186.712 473.747 177.861 475.575 168.771L480.819 142.696C482.591 133.89 491.164 131.299 499.97 133.07Z" fill="#FFDEBB"/>
<path d="M496.16 141.89C501.74 143.237 507.437 144.518 513.219 144.186C517.372 143.948 521.268 141.191 525.412 141.448L526.573 135.308L499.97 133.069C491.58 131.381 483.416 133.668 481.13 141.502C485.47 139.399 491.825 140.844 496.16 141.89Z" fill="#EAB096"/>
<path d="M528.964 134.864C528.964 134.864 534.083 135.576 534.927 142.252C535.769 148.928 531.362 157.87 522.095 166.814C522.095 166.814 519.048 161.694 521.382 151.714C523.715 141.734 524.428 142.381 522.612 139.919C520.799 137.457 519.566 137.003 517.102 138.429C514.64 139.853 507.706 141.539 495.328 139.789C482.951 138.04 476.599 130.587 478.804 119.439C478.804 119.439 479.646 121.837 481.914 122.55C481.914 122.55 481.007 115.81 483.729 112.181C483.729 112.181 485.673 116.198 496.56 116.457C507.447 116.717 518.667 114.741 526.372 121.318C531.686 125.855 528.964 134.864 528.964 134.864Z" fill="#20222B"/>
<path d="M520.41 161.889C520.41 161.889 522.548 156.834 526.112 156.834C529.676 156.834 532.204 159.556 530.843 165.648C529.482 171.739 521.964 174.591 519.048 170.444" fill="#FFDEBB"/>
<path d="M514.836 149.834C514.721 149.875 514.602 149.053 513.948 148.179C513.62 147.754 513.117 147.401 512.49 147.337C511.871 147.281 511.167 147.474 510.516 147.786C509.212 148.431 508.614 148.941 508.262 149.12C507.917 149.318 507.844 149.264 507.772 149.186C507.701 149.11 507.647 149.019 507.918 148.705C508.201 148.409 508.76 147.808 510.196 147.096C510.914 146.755 511.748 146.518 512.579 146.627C512.988 146.693 513.371 146.85 513.688 147.067C513.997 147.292 514.23 147.566 514.407 147.831C515.06 148.943 514.964 149.814 514.836 149.834Z" fill="#20222B"/>
<path d="M484.959 147.89C484.864 147.856 485.15 147.099 485.977 146.245C486.394 145.827 486.948 145.382 487.643 145.081C488.309 144.792 489.212 144.566 490.034 144.887C490.848 145.184 491.265 145.689 491.547 146.035C491.819 146.402 491.944 146.682 492.016 146.877C492.148 147.272 492.055 147.335 491.961 147.372C491.859 147.413 491.777 147.429 491.545 147.137C491.423 146.995 491.265 146.772 491.003 146.482C490.737 146.206 490.374 145.816 489.781 145.605C489.193 145.373 488.535 145.514 487.922 145.74C487.317 145.968 486.8 146.323 486.381 146.656C485.543 147.34 485.104 147.957 484.959 147.89Z" fill="#20222B"/>
<path d="M493.451 168.11C493.378 168.189 492.978 167.959 492.43 167.467C492.157 167.219 491.845 166.908 491.538 166.507C491.389 166.299 491.233 166.079 491.118 165.77C491.057 165.654 491.023 165.334 491.087 165.165C491.136 164.973 491.215 164.835 491.293 164.693C491.969 163.672 492.768 163.078 493.351 162.629C493.943 162.2 494.357 161.999 494.422 162.084C494.491 162.169 494.204 162.518 493.719 163.044C493.252 163.568 492.503 164.273 491.968 165.091C491.913 165.19 491.858 165.289 491.843 165.359C491.823 165.444 491.815 165.402 491.845 165.525C491.903 165.706 492.019 165.91 492.132 166.098C492.372 166.473 492.627 166.81 492.838 167.094C493.263 167.661 493.525 168.03 493.451 168.11Z" fill="#20222B"/>
<path d="M502.523 175.174C502.617 175.217 502.24 176.101 501.095 177.069C499.981 178.046 497.967 178.937 495.676 178.904C493.43 178.876 491.336 178.268 490.214 177.171C489.651 176.644 489.378 176.051 489.287 175.638C489.192 175.22 489.25 174.978 489.303 174.98C489.412 174.95 489.494 175.914 490.577 176.754C491.625 177.603 493.559 178.091 495.679 178.119C497.799 178.145 499.63 177.426 500.759 176.626C501.909 175.838 502.429 175.111 502.523 175.174Z" fill="#20222B"/>
<path d="M528.446 162.601C528.399 162.614 528.421 162.226 528.235 161.603C528.073 161.042 527.487 159.967 526.398 160.425C525.377 160.765 524.334 161.663 523.622 162.818C523.267 163.4 522.998 164.055 522.853 164.748C522.721 165.427 522.658 166.205 522.836 166.825C522.998 167.507 523.521 167.5 523.953 167.223C524.371 166.954 524.644 166.562 524.793 166.218C525.113 165.49 524.906 165.007 524.673 164.768C524.161 164.304 524.061 164.321 524.104 164.221C524.114 164.183 524.135 164.146 524.254 164.153C524.368 164.167 524.601 164.199 524.951 164.478C525.12 164.619 525.318 164.854 525.404 165.206C525.493 165.555 525.451 165.981 525.281 166.417C525.105 166.855 524.8 167.331 524.252 167.699C523.981 167.871 523.606 168.032 523.157 167.94C522.687 167.842 522.387 167.389 522.29 166.995C521.929 165.38 522.383 163.802 523.157 162.549C523.948 161.308 525.062 160.392 526.228 160.025C526.527 159.952 526.823 159.886 527.13 159.942C527.281 159.948 527.431 160.026 527.568 160.093C527.68 160.176 527.79 160.253 527.876 160.349C528.241 160.718 528.386 161.151 528.466 161.49C528.601 162.184 528.496 162.589 528.446 162.601Z" fill="#20222B"/>
<path d="M484.626 154.697C485.018 153.302 485.951 152.342 486.709 152.557C487.468 152.77 487.763 154.074 487.37 155.471C486.976 156.867 486.043 157.826 485.284 157.613C484.527 157.397 484.232 156.093 484.626 154.697Z" fill="#20222B"/>
<path d="M508.41 155.863C508.802 154.468 509.736 153.508 510.494 153.723C511.253 153.937 511.548 155.241 511.154 156.637C510.761 158.033 509.827 158.991 509.069 158.778C508.311 158.564 508.016 157.26 508.41 155.863Z" fill="#20222B"/>
<path d="M477.637 222.937L507.837 223.585L506.8 239.139L476.21 238.361L477.637 222.937Z" fill="#3A6ACC"/>
<path d="M516.892 264.108C512.374 264.71 503.354 265.534 488.135 265.45C475.11 265.38 467.33 264.37 462.954 263.475C462.893 265.753 462.86 267.135 462.86 267.135C462.86 267.135 465.842 269.078 487.877 269.078C509.911 269.078 516.781 267.869 516.781 267.869C516.733 267.341 516.78 266.009 516.892 264.108Z" fill="white"/>
<path d="M554.757 241.99C553.828 237.809 547.372 228.701 543.789 223.878L533.3 232.383L539.853 241.731L518.688 242.316L507.06 242.638L510.819 255.339C510.819 255.339 513.53 255.387 517.54 255.393C524.941 255.405 536.778 255.273 544.259 254.433C555.795 253.138 556.053 247.823 554.757 241.99Z" fill="#FFDEBB"/>
<path d="M416.632 204.272C416.632 204.272 416.978 207.469 412.656 212.653C408.336 217.838 404.188 218.184 397.967 214.9C391.745 211.616 389.498 212.222 391.14 203.58C392.783 194.939 394.77 188.891 401.337 192.174C407.905 195.459 415.595 199.088 416.632 204.272Z" fill="#EAB096"/>
<path d="M399.12 182.33L408.587 185.197C409.093 185.35 409.523 185.687 409.795 186.142L411.57 189.121C411.876 189.636 411.952 190.255 411.777 190.827L406.137 209.308C405.587 211.106 404.49 212.682 402.987 213.81C400.2 215.901 395.094 218.342 387.743 216.421C386.682 216.144 386.031 215.063 386.25 213.987L386.261 213.934C386.51 212.721 387.719 211.989 388.907 212.303C391.347 212.949 395.367 213.626 398.4 212.221C403.065 210.061 403.412 206.864 405.139 200.556C406.868 194.249 408.768 191.656 405.744 190.274C402.719 188.891 400.646 188.286 398.918 188.545C398.831 188.557 398.739 188.583 398.644 188.617C396.935 189.242 394.184 191.953 394.722 190.214L396.48 183.734C396.825 182.619 398.006 181.993 399.12 182.33Z" fill="#0F2A46"/>
<path d="M395.202 209.111C395.202 209.111 398.745 210.666 401.078 209.715C403.411 208.765 403.064 205.568 399.435 204.358C395.805 203.148 392.263 202.284 391.14 204.099C390.016 205.913 389.498 211.358 394.25 213.086C394.25 213.086 389.759 207.988 395.202 209.111Z" fill="#FFDEBB"/>
<path d="M406.996 195.653C408.328 194.139 408.553 192.153 404.663 190.145C400.775 188.136 398.313 188.071 397.081 189.238C395.85 190.405 394.358 193.319 394.618 194.552C394.877 195.783 398.246 193.514 401.164 194.746C404.08 195.977 405.572 197.273 406.996 195.653Z" fill="#FFDEBB"/>
<path d="M404.959 200.698C406.335 198.995 406.564 196.761 402.553 194.501C398.539 192.242 395.998 192.168 394.729 193.481C393.457 194.793 391.919 198.073 392.187 199.459C392.455 200.845 395.932 198.292 398.942 199.678C401.951 201.062 403.489 202.519 404.959 200.698Z" fill="#FFDEBB"/>
<path d="M403.146 205.074C404.521 203.569 404.75 201.595 400.739 199.597C396.725 197.6 394.184 197.536 392.914 198.695C391.644 199.855 390.106 202.754 390.372 203.979C390.64 205.204 394.118 202.948 397.128 204.172C400.136 205.396 401.674 206.685 403.146 205.074Z" fill="#FFDEBB"/>
<path d="M412.657 212.654C418.879 206.432 419.397 198.569 418.446 196.409C417.496 194.249 412.571 193.039 407.128 194.94C401.685 196.841 402.288 200.125 404.276 200.644C406.264 201.163 411.708 199.866 411.708 199.866C411.708 199.866 401.684 210.926 412.657 212.654Z" fill="#FFDEBB"/>
<path d="M538.16 368.068C534.931 368.068 531.665 367.857 528.434 367.364C508.69 364.348 508.01 353.385 506.656 331.544C506.423 327.766 506.155 323.483 505.766 318.907C504.598 305.199 504.975 292.258 505.308 280.839C505.725 266.55 506.083 254.21 503.535 243.831C501.922 237.26 500.292 234.168 497.72 232.804C493.098 230.355 484.666 233.481 467.867 239.708C463.913 241.174 459.431 242.835 454.44 244.631C416.462 258.289 386.572 267.868 375.985 256.915C365.776 246.352 378.757 216.674 379.316 215.416C379.461 215.087 379.845 214.942 380.17 215.085C380.497 215.23 380.646 215.613 380.5 215.941C380.367 216.241 367.312 246.075 376.918 256.013C386.945 266.388 417.761 256.444 454 243.409C458.987 241.616 463.465 239.956 467.417 238.493C484.579 232.129 493.194 228.936 498.326 231.658C501.719 233.457 503.364 237.701 504.794 243.52C507.383 254.072 507.022 266.493 506.602 280.874C506.272 292.26 505.895 305.163 507.057 318.797C507.448 323.387 507.715 327.678 507.949 331.463C509.302 353.271 509.92 363.225 528.631 366.081C550.817 369.472 574.872 359.318 575.112 359.214C575.439 359.073 575.821 359.225 575.963 359.554C576.104 359.883 575.951 360.264 575.623 360.405C575.412 360.495 557.482 368.068 538.16 368.068Z" fill="#394159"/>
<path d="M513.929 246.526C513.929 246.526 509.716 233.371 504.531 233.305C499.346 233.241 491.829 232.982 491.44 236.222C491.052 239.463 495.912 239.982 495.912 239.982C495.912 239.982 498.309 247.175 499.735 251.322C501.161 255.471 502.522 256.962 508.809 257.025C515.096 257.091 515.225 251.971 513.929 246.526Z" fill="#FFDEBB"/>
<path d="M501.421 237.777C501.421 237.777 495.264 237.585 492.737 238.75C490.209 239.918 490.404 243.546 493.967 243.676C497.532 243.805 501.161 244.129 501.161 244.129" fill="#F0DEB4"/>
<path d="M501.357 242.962C501.357 242.962 496.043 242.833 493.968 243.351C491.895 243.871 490.662 247.694 494.876 248.666C499.087 249.639 500.449 249.055 500.449 249.055" fill="#FFDEBB"/>
<path d="M501.68 248.341C501.68 248.341 495.848 247.953 493.904 248.861C491.961 249.767 491.764 253.462 495.654 253.397C499.541 253.333 502.004 253.138 502.004 253.138" fill="#FFDEBB"/>
<path d="M382.5 218.789L375.501 217.32C375.501 217.32 373.168 212.913 373.341 207.816C373.512 202.717 379.821 184.83 379.821 184.83L364.545 180.255C363.432 179.921 362.509 179.137 361.998 178.093L359.344 172.646L331.087 163.573L333.16 157.438L361.157 166.08L363.606 165.212C364.709 164.821 365.909 164.79 367.029 165.126L398.174 174.394C400.029 174.945 401.038 176.947 400.376 178.767L387.39 214.518C387.076 215.384 386.492 216.128 385.727 216.637L382.5 218.789Z" fill="#0F2A46"/>
<path d="M270.773 169.795C270.773 165.859 267.581 162.667 263.644 162.667C261.606 162.667 259.774 163.526 258.475 164.896C257.264 163.532 255.502 162.667 253.534 162.667C252.798 162.667 252.092 162.793 251.431 163.014C250.159 160.066 247.227 158 243.813 158C240.458 158 237.574 159.996 236.268 162.863C235.363 162.329 234.31 162.019 233.184 162.019C232.917 162.019 232.657 162.042 232.401 162.075C231.575 159.128 228.877 156.964 225.667 156.964C221.962 156.964 218.938 159.843 218.691 163.486C218.554 163.476 218.419 163.445 218.278 163.445C215.838 163.445 213.803 165.1 213.18 167.342C213.151 167.342 213.122 167.333 213.094 167.333C210.015 167.333 207.521 169.829 207.521 172.906C207.521 175.986 210.016 178.48 213.094 178.48C214.517 178.48 215.801 177.932 216.786 177.054C218.147 179.159 220.51 180.554 223.204 180.554C225.773 180.554 228.039 179.284 229.426 177.343C230.29 177.893 231.308 178.221 232.407 178.221C233.615 178.221 234.724 177.828 235.637 177.175C236.94 179.646 239.53 181.332 242.517 181.332C245.253 181.332 247.655 179.916 249.041 177.779C250.399 179.017 252.199 179.777 254.182 179.777C256.889 179.777 259.261 178.367 260.621 176.246C261.539 176.678 262.562 176.926 263.644 176.926C267.58 176.924 270.773 173.732 270.773 169.795Z" fill="#D6E6ED"/>
<path d="M235.518 150.223C238.238 150.223 240.443 148.018 240.443 145.298C240.443 142.576 238.238 140.373 235.518 140.373C232.797 140.373 230.592 142.577 230.592 145.298C230.592 148.019 232.797 150.223 235.518 150.223Z" fill="white"/>
<path d="M211.409 144.78C212.554 144.78 213.483 143.851 213.483 142.706C213.483 141.562 212.554 140.632 211.409 140.632C210.264 140.632 209.336 141.562 209.336 142.706C209.336 143.851 210.265 144.78 211.409 144.78Z" fill="white"/>
<path d="M197.411 157.352C195.191 157.352 193.393 159.151 193.393 161.37C193.393 163.589 195.192 165.388 197.411 165.388C199.629 165.388 201.428 163.589 201.428 161.37C201.429 159.151 199.63 157.352 197.411 157.352Z" fill="white"/>
<path d="M140.64 231.621C142.071 231.621 143.232 230.461 143.232 229.028C143.232 227.596 142.071 226.436 140.64 226.436C139.208 226.436 138.047 227.597 138.047 229.028C138.047 230.461 139.208 231.621 140.64 231.621Z" fill="white"/>
<path d="M154.897 241.083C153.107 241.083 151.656 242.534 151.656 244.323C151.656 246.113 153.107 247.563 154.897 247.563C156.687 247.563 158.137 246.113 158.137 244.323C158.138 242.534 156.687 241.083 154.897 241.083Z" fill="white"/>
<path d="M143.427 250.192C144.12 249.093 144.528 247.794 144.528 246.397C144.528 242.459 141.336 239.268 137.4 239.268C133.463 239.268 130.271 242.459 130.271 246.397C130.271 247.161 130.395 247.893 130.616 248.584C129.848 248.817 129.119 249.215 128.511 249.821C127.575 250.757 127.098 251.969 127.05 253.196C126.588 253.077 126.105 253.007 125.606 253.007C122.385 253.007 119.773 255.619 119.773 258.84C119.773 261.481 121.527 263.708 123.934 264.428C124.078 268.022 127.03 270.895 130.66 270.895C132.671 270.895 134.473 270.008 135.708 268.612C136.364 268.829 137.061 268.951 137.79 268.951C141.44 268.951 144.399 265.991 144.399 262.342C144.399 262.056 144.375 261.777 144.34 261.502C146.022 260.303 147.122 258.341 147.122 256.119C147.121 253.515 145.612 251.27 143.427 250.192Z" fill="white"/>
<path d="M88.2762 272.709C89.9222 272.709 91.2572 271.374 91.2572 269.728C91.2572 268.081 89.9232 266.747 88.2762 266.747C86.6292 266.747 85.2943 268.082 85.2943 269.728C85.2943 271.374 86.6292 272.709 88.2762 272.709Z" fill="white"/>
<path d="M103.7 292.928C101.767 292.928 100.201 294.495 100.201 296.428C100.201 298.361 101.768 299.927 103.7 299.927C105.633 299.927 107.199 298.361 107.199 296.428C107.199 294.496 105.632 292.928 103.7 292.928Z" fill="white"/>
<path d="M90.3492 279.968C88.8502 279.968 87.4882 280.539 86.4532 281.468C85.5032 279.877 83.7822 278.801 81.7942 278.801C79.6482 278.801 77.8092 280.055 76.9222 281.86C76.6082 281.814 76.2882 281.783 75.9612 281.783C74.6432 281.783 73.4152 282.174 72.3832 282.84C71.2672 281.559 69.6282 280.747 67.7952 280.747C64.4302 280.747 61.7032 283.474 61.7032 286.838C61.7032 287.982 62.0252 289.05 62.5732 289.964C59.4922 290.118 57.0372 292.66 57.0372 295.781C57.0372 299.002 59.6492 301.613 62.8702 301.613C64.4962 301.613 65.9652 300.948 67.0232 299.873C67.9402 301.893 69.9702 303.299 72.3322 303.299C75.5522 303.299 78.1642 300.688 78.1642 297.467C78.1642 297.331 78.1532 297.197 78.1432 297.064C79.7922 297.431 81.5632 297.016 82.9072 295.835C83.9052 297.059 85.4062 297.856 87.1072 297.856C90.1132 297.856 92.5502 295.419 92.5502 292.412C92.5502 292.012 92.5022 291.624 92.4202 291.249C94.6172 290.413 96.1792 288.292 96.1792 285.802C96.1812 282.58 93.5702 279.968 90.3492 279.968Z" fill="white"/>
<path d="M46.0212 301.095C44.7312 301.095 43.6882 302.14 43.6882 303.428C43.6882 304.716 44.7312 305.761 46.0212 305.761C47.3102 305.761 48.3542 304.716 48.3542 303.428C48.3542 302.139 47.3102 301.095 46.0212 301.095Z" fill="white"/>
<path d="M277.513 254.562C279.088 254.562 280.364 253.286 280.364 251.71C280.364 250.137 279.088 248.859 277.513 248.859C275.937 248.859 274.661 250.136 274.661 251.71C274.661 253.286 275.937 254.562 277.513 254.562Z" fill="white"/>
<path d="M307.583 275.042C304.578 275.042 302.14 277.48 302.14 280.486C302.14 283.492 304.578 285.929 307.583 285.929C310.589 285.929 313.027 283.492 313.027 280.486C313.027 277.48 310.589 275.042 307.583 275.042Z" fill="white"/>
<path d="M273.841 302.78C271.86 302.78 270.255 304.385 270.255 306.365C270.255 308.346 271.86 309.952 273.841 309.952C275.821 309.952 277.426 308.346 277.426 306.365C277.426 304.385 275.821 302.78 273.841 302.78Z" fill="white"/>
<path d="M294.706 284.385C295.354 283.479 295.745 282.377 295.745 281.178C295.745 279.023 294.5 277.176 292.702 276.264C295.262 275.088 297.042 272.512 297.042 269.512C297.042 265.408 293.714 262.081 289.61 262.081C286.356 262.081 283.598 264.177 282.592 267.087C281.961 266.815 281.268 266.661 280.537 266.661C278.339 266.661 276.473 268.032 275.718 269.963C275.241 269.843 274.744 269.772 274.229 269.772C270.889 269.772 268.18 272.481 268.18 275.821C268.18 278.628 270.094 280.98 272.688 281.664C271.886 282.405 271.377 283.457 271.377 284.635C271.377 286.642 272.836 288.298 274.749 288.626C274.094 289.611 273.71 290.794 273.71 292.065C273.71 295.502 276.495 298.287 279.931 298.287C281.224 298.287 282.423 297.893 283.417 297.22C283.706 300.196 286.212 302.521 289.263 302.521C292.508 302.521 295.139 299.891 295.139 296.645C295.139 295.848 294.979 295.087 294.69 294.393C296.931 293.822 298.596 291.806 298.596 289.386C298.597 286.972 296.939 284.961 294.706 284.385Z" fill="white"/>
<path d="M287.622 175.584C289.913 175.584 291.77 173.727 291.77 171.436C291.77 169.146 289.913 167.288 287.622 167.288C285.332 167.288 283.475 169.145 283.475 171.436C283.475 173.728 285.332 175.584 287.622 175.584Z" fill="white"/>
</svg>
